<svg width="1310" height="464" viewBox="0 0 1310 464" fill="none" xmlns="http://www.w3.org/2000/svg">
<rect width="1310" height="464" fill="white"/>
<g clip-path="url(#clip0)">
<rect width="160" height="142.5" transform="translate(32 160.75)" fill="white"/>
<path d="M163.552 206.89C161.849 206.306 160.132 205.765 158.402 205.267C158.692 204.079 158.96 202.906 159.198 201.754C163.096 182.828 160.547 167.581 151.842 162.561C143.495 157.749 129.844 162.767 116.058 174.765C114.699 175.95 113.371 177.168 112.074 178.42C111.205 177.588 110.322 176.772 109.423 175.972C94.9744 163.143 80.4919 157.736 71.7956 162.771C63.4562 167.598 60.9869 181.931 64.4969 199.868C64.8461 201.644 65.2404 203.411 65.6794 205.168C63.6294 205.75 61.6512 206.37 59.7581 207.03C42.8181 212.936 32 222.192 32 231.793C32 241.708 43.6138 251.654 61.2575 257.684C62.6879 258.171 64.1302 258.623 65.5831 259.038C65.1113 260.929 64.6924 262.834 64.3269 264.749C60.9806 282.374 63.5937 296.368 71.9106 301.165C80.5006 306.119 94.9181 301.028 108.956 288.756C110.095 287.758 111.208 286.732 112.295 285.679C113.7 287.034 115.142 288.35 116.62 289.625C130.219 301.326 143.649 306.051 151.958 301.241C160.539 296.273 163.329 281.239 159.708 262.949C159.422 261.516 159.102 260.09 158.748 258.673C159.761 258.373 160.754 258.064 161.723 257.743C180.066 251.666 192 241.841 192 231.793C192 222.157 180.833 212.839 163.552 206.89V206.89ZM159.574 251.255C158.699 251.544 157.801 251.824 156.886 252.096C154.861 245.685 152.129 238.869 148.784 231.826C151.976 224.951 154.603 218.221 156.571 211.853C158.208 212.326 159.796 212.826 161.327 213.353C176.134 218.45 185.165 225.986 185.165 231.793C185.165 237.978 175.411 246.007 159.574 251.255V251.255ZM153.003 264.276C154.604 272.364 154.832 279.676 153.771 285.393C152.819 290.53 150.902 293.954 148.532 295.326C143.491 298.245 132.707 294.451 121.078 284.444C119.703 283.258 118.362 282.035 117.055 280.775C121.564 275.844 126.069 270.113 130.467 263.746C138.202 263.06 145.509 261.938 152.136 260.406C152.463 261.723 152.753 263.014 153.003 264.276V264.276ZM86.5475 294.822C81.6213 296.561 77.6975 296.611 75.3256 295.244C70.2787 292.333 68.1806 281.096 71.0425 266.024C71.3827 264.243 71.7722 262.471 72.2106 260.712C78.7644 262.162 86.0187 263.204 93.7719 263.833C98.1994 270.063 102.835 275.788 107.507 280.802C106.514 281.763 105.498 282.699 104.459 283.609C98.2506 289.036 92.03 292.886 86.5475 294.822V294.822ZM63.4687 251.217C55.6669 248.55 49.2238 245.084 44.8075 241.303C40.8388 237.904 38.8356 234.53 38.8356 231.793C38.8356 225.966 47.5212 218.535 62.0081 213.484C63.7663 212.872 65.6063 212.294 67.5156 211.751C69.5181 218.264 72.1444 225.073 75.3138 231.959C72.1031 238.946 69.4394 245.864 67.4175 252.454C66.0913 252.074 64.7747 251.662 63.4687 251.217V251.217ZM71.205 198.554C68.1981 183.188 70.195 171.596 75.2206 168.686C80.5731 165.588 92.4094 170.006 104.885 181.083C105.699 181.807 106.499 182.546 107.286 183.299C102.637 188.291 98.0438 193.974 93.6556 200.166C86.1306 200.864 78.9275 201.984 72.305 203.484C71.897 201.851 71.5302 200.207 71.205 198.555V198.554ZM140.222 215.597C138.658 212.895 137.035 210.227 135.356 207.595C140.461 208.241 145.352 209.098 149.946 210.145C148.567 214.565 146.848 219.186 144.825 223.923C143.346 221.117 141.812 218.341 140.222 215.597V215.597ZM112.077 188.184C115.229 191.599 118.387 195.413 121.493 199.55C115.193 199.253 108.882 199.251 102.582 199.546C105.691 195.447 108.875 191.639 112.077 188.184ZM83.7513 215.644C82.1815 218.366 80.6754 221.125 79.2344 223.918C77.2444 219.197 75.5413 214.555 74.1506 210.073C78.7156 209.051 83.5838 208.216 88.6563 207.583C86.9584 210.231 85.3229 212.918 83.7513 215.643V215.644ZM88.8019 256.489C83.5613 255.904 78.62 255.112 74.0563 254.118C75.4688 249.556 77.2094 244.815 79.2425 239.993C80.6893 242.788 82.2016 245.548 83.7781 248.272C85.3994 251.072 87.0781 253.814 88.8019 256.489ZM112.266 275.883C109.026 272.388 105.794 268.521 102.639 264.362C105.703 264.482 108.826 264.543 112 264.543C115.261 264.543 118.485 264.47 121.658 264.329C118.543 268.563 115.397 272.435 112.266 275.883ZM144.889 239.747C147.028 244.622 148.831 249.338 150.262 253.822C145.623 254.881 140.614 255.733 135.337 256.366C137.028 253.685 138.666 250.971 140.249 248.225C141.858 245.434 143.406 242.607 144.889 239.747V239.747ZM134.328 244.81C131.904 249.02 129.345 253.151 126.653 257.194C121.776 257.54 116.889 257.711 112 257.709C107.021 257.709 102.177 257.554 97.5137 257.251C94.7514 253.217 92.1427 249.079 89.6931 244.848H89.6937C87.2557 240.638 84.9785 236.338 82.8669 231.956C84.9731 227.572 87.2435 223.27 89.6731 219.058L89.6725 219.058C92.1012 214.845 94.6892 210.725 97.4306 206.708C102.189 206.348 107.068 206.16 111.999 206.16H112C116.954 206.16 121.839 206.349 126.596 206.712C129.31 210.723 131.881 214.829 134.306 219.021C136.743 223.225 139.044 227.506 141.203 231.859C139.066 236.256 136.773 240.576 134.328 244.81V244.81ZM148.428 168.483C153.786 171.573 155.869 184.033 152.503 200.374C152.288 201.416 152.047 202.478 151.784 203.555C145.146 202.023 137.938 200.883 130.391 200.175C125.994 193.914 121.439 188.223 116.866 183.295C118.064 182.14 119.291 181.014 120.546 179.92C132.358 169.641 143.398 165.582 148.428 168.483V168.483ZM112 217.505C119.891 217.505 126.288 223.902 126.288 231.793C126.288 239.683 119.891 246.08 112 246.08C104.109 246.08 97.7125 239.683 97.7125 231.793C97.7125 223.902 104.109 217.505 112 217.505V217.505Z" fill="#00D8FF"/>
</g>
<path d="M305.828 234.328C307.391 232.766 307.391 230.234 305.828 228.672L280.373 203.216C278.81 201.654 276.278 201.654 274.716 203.216C273.154 204.778 273.154 207.31 274.716 208.873L297.343 231.5L274.716 254.127C273.154 255.69 273.154 258.222 274.716 259.784C276.278 261.346 278.81 261.346 280.373 259.784L305.828 234.328ZM224 235.5H303V227.5H224V235.5Z" fill="#2D3748"/>
<path d="M710 182V82L585 182V82L460 182V32H335V432H835V82L710 182ZM510 357H460V282H510V357ZM635 357H585V282H635V357ZM760 357H710V282H760V357Z" fill="#718096"/>
<rect x="411.044" y="236.031" width="375.913" height="167.938" rx="8" fill="white"/>
<path d="M467.349 270.163C472.098 268.897 477.153 269.54 481.433 271.956C485.713 274.371 488.878 278.366 490.249 283.085C493.73 283.771 497.112 284.888 500.316 286.411C500.193 284.586 499.892 282.778 499.418 281.012C495.398 266.007 479.922 257.068 464.917 261.093C449.912 265.117 440.979 280.589 445 295.592C445.475 297.36 446.122 299.077 446.93 300.719C448.943 297.796 451.313 295.137 453.986 292.803C452.812 288.032 453.554 282.991 456.052 278.759C458.55 274.527 462.605 271.442 467.349 270.163Z" fill="#5781C2"/>
<path d="M479.499 315.511C484.128 314.27 488.363 311.867 491.805 308.532C495.246 305.196 497.779 301.038 499.165 296.45C496.445 294.822 493.508 293.587 490.442 292.783C489.639 296.047 487.974 299.036 485.621 301.438C483.268 303.839 480.314 305.565 477.067 306.435C473.82 307.305 470.398 307.288 467.16 306.384C463.922 305.481 460.986 303.725 458.658 301.299C456.406 303.529 454.481 306.066 452.94 308.835C456.433 312.115 460.706 314.45 465.354 315.618C470.001 316.787 474.87 316.75 479.499 315.511Z" fill="#6C7179"/>
<path d="M475.146 299.164C481.153 297.542 484.707 291.358 483.085 285.351C481.463 279.344 475.279 275.79 469.272 277.411C463.266 279.033 459.711 285.218 461.333 291.224C462.955 297.231 469.139 300.786 475.146 299.164Z" fill="#4B6A97"/>
<path d="M460.076 369.84C456.124 370.897 451.936 370.634 448.147 369.093C444.359 367.552 441.177 364.815 439.086 361.301C436.994 357.785 436.108 353.684 436.561 349.619C437.013 345.553 438.781 341.747 441.595 338.779C441.296 337.896 441.023 337.001 440.778 336.092C440.1 333.56 439.653 330.972 439.443 328.36C429.777 334.905 424.819 347.096 428.006 358.991C432.033 373.994 447.509 382.929 462.517 378.909C469.006 377.177 474.659 373.173 478.446 367.626C474.903 367.327 471.413 366.582 468.057 365.408C465.804 367.523 463.062 369.046 460.076 369.84Z" fill="#5781C2"/>
<path d="M448.726 324.298C448.653 327.46 449.032 330.615 449.852 333.669L449.864 333.709C450.026 333.66 450.192 333.613 450.359 333.568C453.594 332.702 457.001 332.717 460.227 333.611C463.454 334.505 466.383 336.246 468.711 338.652C471.039 341.058 472.681 344.043 473.468 347.298C474.254 350.553 474.156 353.958 473.184 357.162C476.243 358.014 479.409 358.421 482.585 358.372C483.712 353.781 483.659 348.979 482.431 344.415C478.479 329.671 463.477 320.788 448.726 324.298Z" fill="#6C7179"/>
<path d="M458.165 362.569C464.172 360.948 467.727 354.763 466.105 348.757C464.483 342.75 458.298 339.195 452.292 340.817C446.285 342.439 442.73 348.623 444.352 354.63C445.974 360.637 452.158 364.191 458.165 362.569Z" fill="#4B6A97"/>
<path d="M513.927 316.741L514.303 316.646C514.282 316.565 514.264 316.486 514.243 316.407C513.446 313.423 512.237 310.564 510.65 307.913C496.157 312.278 487.629 327.444 491.572 342.172C492.774 346.66 495.072 350.779 498.26 354.157C501.031 352.615 503.565 350.683 505.787 348.42C503.386 346.115 501.64 343.213 500.73 340.012C499.819 336.81 499.776 333.425 500.604 330.201C501.432 326.977 503.103 324.031 505.444 321.665C507.785 319.299 510.713 317.598 513.927 316.736V316.741Z" fill="#6C7179"/>
<path d="M520.686 306.775C521.774 309.093 522.654 311.504 523.315 313.977C523.565 314.927 523.786 315.881 523.976 316.839C528.661 318.236 532.617 321.405 535.002 325.672C537.388 329.94 538.015 334.969 536.751 339.692C535.487 344.415 532.43 348.458 528.232 350.963C524.033 353.468 519.024 354.237 514.267 353.106C511.949 355.779 509.305 358.152 506.397 360.167C512.506 363.174 519.5 363.858 526.076 362.092C541.079 358.071 550.014 342.595 545.993 327.59C542.802 315.66 532.376 307.573 520.686 306.775Z" fill="#5781C2"/>
<path d="M521.728 345.749C527.735 344.127 531.29 337.943 529.668 331.936C528.046 325.929 521.862 322.375 515.855 323.997C509.848 325.618 506.294 331.803 507.915 337.809C509.537 343.816 515.722 347.371 521.728 345.749Z" fill="#4B6A97"/>
<g clip-path="url(#clip1)">
<path d="M616.099 315.714H603.242V302.857C603.242 301.279 601.963 300 600.385 300H597.528C595.95 300 594.671 301.279 594.671 302.857V315.714H581.814C580.236 315.714 578.956 316.994 578.956 318.571V321.429C578.956 323.006 580.236 324.286 581.814 324.286H594.671V337.143C594.671 338.721 595.95 340 597.528 340H600.385C601.963 340 603.242 338.721 603.242 337.143V324.286H616.099C617.677 324.286 618.956 323.006 618.956 321.429V318.571C618.956 316.994 617.677 315.714 616.099 315.714Z" fill="#4A5568"/>
</g>
<g clip-path="url(#clip2)">
<path d="M710.956 252.054L770.956 285.994V353.895L710.956 387.835L650.956 353.895V285.994L710.956 252.054Z" fill="white"/>
<path d="M760.247 351.541L712.949 378.325V357.495L742.428 341.262L760.247 351.541ZM763.485 348.62V292.65L746.187 302.635V338.635L763.485 348.62V348.62ZM661.485 351.54L708.783 378.303V357.473L679.304 341.262L661.485 351.541V351.54ZM658.247 348.62V292.65L675.545 302.635V338.635L658.247 348.62V348.62ZM660.263 289.028L708.783 261.586V281.737L677.696 298.831L677.447 298.967L660.263 289.027V289.028ZM761.447 289.028L712.949 261.585V281.737L744.013 298.853L744.262 298.989L761.447 289.027V289.028Z" fill="#8ED6FB"/>
<path d="M708.783 352.741L679.711 336.733V305.058L708.783 321.835V352.741V352.741ZM712.949 352.741L742.021 336.756V305.058L712.949 321.835V352.741V352.741ZM681.658 301.39L710.866 285.337L740.05 301.39L710.866 318.235L681.658 301.39V301.39Z" fill="#1C78C0"/>
</g>
<path d="M948.828 234.328C950.391 232.766 950.391 230.234 948.828 228.672L923.373 203.216C921.81 201.654 919.278 201.654 917.716 203.216C916.154 204.778 916.154 207.31 917.716 208.873L940.343 231.5L917.716 254.127C916.154 255.69 916.154 258.222 917.716 259.784C919.278 261.346 921.81 261.346 923.373 259.784L948.828 234.328ZM867 235.5H946V227.5H867V235.5Z" fill="#2D3748"/>
<path fill-rule="evenodd" clip-rule="evenodd" d="M999 148L1128 82L1257 148L1128 211.003L999 148Z" fill="#FBF063"/>
<path fill-rule="evenodd" clip-rule="evenodd" d="M1128.01 210.991L999 148V310.84L1128.02 375.982L1128.01 210.991Z" fill="#F29C1F"/>
<path fill-rule="evenodd" clip-rule="evenodd" d="M1128 375.982L1257.02 310.84V148L1128.01 210.991L1128 375.982Z" fill="#F0C419"/>
<path opacity="0.5" fill-rule="evenodd" clip-rule="evenodd" d="M1059.11 117.115L1188.09 181.609L1194.88 178.294L1065.74 113.722L1059.11 117.115Z" fill="#F29C1F"/>
<path opacity="0.5" fill-rule="evenodd" clip-rule="evenodd" d="M1041.95 126.022L1167.9 191.515L1215.87 168.088L1085.36 103.813L1041.95 126.022Z" fill="white"/>
<path opacity="0.5" fill-rule="evenodd" clip-rule="evenodd" d="M1167.94 191.515L1215.87 168.061V201.061L1167.94 227.512V191.515V191.515Z" fill="white"/>
<g opacity="0.8" clip-path="url(#clip3)">
<path fill-rule="evenodd" clip-rule="evenodd" d="M1251.04 243.148L1240.91 271.138L1223.64 257.716L1238.38 227.534L1251.04 243.148Z" fill="#166DA5"/>
<path fill-rule="evenodd" clip-rule="evenodd" d="M1239.88 275.534L1221.15 261.371L1211.89 286.818L1229.62 304.896L1239.88 275.534Z" fill="#8FDB69"/>
<path fill-rule="evenodd" clip-rule="evenodd" d="M1236.71 224.447L1220.92 257.427L1209.36 243.289L1224 207.941L1236.71 224.447Z" fill="#166DA5"/>
<path opacity="0.95" fill-rule="evenodd" clip-rule="evenodd" d="M1184.38 252.863L1236.71 224.447L1223.87 208.012L1194.59 223.909L1184.38 252.863Z" fill="url(#paint0_linear)"/>
<path opacity="0.95" fill-rule="evenodd" clip-rule="evenodd" d="M1220.93 257.502L1249.88 241.782L1238.31 227.495L1209.29 243.25" fill="url(#paint1_linear)"/>
<path opacity="0.95" fill-rule="evenodd" clip-rule="evenodd" d="M1239.88 275.608L1187.29 304.167L1200.13 320.602L1229.61 304.598L1239.88 275.608Z" fill="url(#paint2_linear)"/>
<path fill-rule="evenodd" clip-rule="evenodd" d="M1200.13 320.602L1172.7 285.609L1194.85 223.693L1167.86 238.345L1146.1 300.048L1173.47 335.077L1200.13 320.602Z" fill="#010101"/>
<path opacity="0.95" fill-rule="evenodd" clip-rule="evenodd" d="M1221.15 261.297L1250.1 245.577L1240.84 271.173L1211.83 286.928" fill="url(#paint3_linear)"/>
</g>
<path d="M1020.24 301.99L1021.99 310.959L1027.08 313.811L1018.67 274.368L1014.32 271.928L1003.5 300.606L1008.61 303.469L1010.9 296.756L1020.24 301.99ZM1012.3 292.629L1016.22 281.083L1019.19 296.488L1012.3 292.629Z" fill="black"/>
<path d="M1037.63 284.984L1031.54 281.571L1030.41 315.677L1035.01 318.254L1035.39 306.682L1035.61 291.869L1039.24 309.912L1041.8 311.344L1046.92 297.629L1046.13 312.695L1045.75 324.266L1050.37 326.855L1051.49 292.748L1045.38 289.324L1040.83 301.639L1037.63 284.984Z" fill="black"/>
<path d="M1055.6 329.786L1063.13 334.001C1064.49 334.764 1065.77 335.291 1066.97 335.58C1068.18 335.877 1069.29 335.949 1070.3 335.796C1071.19 335.644 1072.01 335.314 1072.75 334.805C1073.5 334.304 1074.15 333.641 1074.69 332.814C1075.24 331.964 1075.68 330.929 1076 329.707C1076.33 328.478 1076.52 327.09 1076.57 325.544L1076.66 322.873C1076.71 321.265 1076.61 319.666 1076.36 318.077C1076.11 316.488 1075.73 314.947 1075.22 313.455C1074.73 312.017 1074.1 310.616 1073.34 309.252C1072.59 307.896 1071.72 306.63 1070.74 305.456C1069.83 304.344 1068.81 303.307 1067.69 302.345C1066.57 301.368 1065.37 300.52 1064.09 299.803L1056.73 295.68L1055.6 329.786ZM1061.55 303.054L1063.94 304.394C1064.73 304.837 1065.46 305.35 1066.14 305.935C1066.81 306.52 1067.42 307.145 1067.95 307.809C1068.68 308.713 1069.31 309.7 1069.83 310.771C1070.35 311.842 1070.76 312.953 1071.05 314.104C1071.29 315.03 1071.46 315.992 1071.56 316.99C1071.67 317.987 1071.71 319.001 1071.67 320.032L1071.58 322.749C1071.55 323.796 1071.45 324.741 1071.28 325.586C1071.11 326.431 1070.89 327.172 1070.6 327.808C1070.27 328.545 1069.86 329.144 1069.38 329.603C1068.89 330.061 1068.33 330.353 1067.7 330.478C1067.1 330.603 1066.43 330.584 1065.68 330.421C1064.95 330.251 1064.15 329.921 1063.28 329.433L1060.72 328.001L1061.55 303.054Z" fill="black"/>
<defs>
<linearGradient id="paint0_linear" x1="1183.72" y1="241.516" x2="1237.52" y2="238.395" gradientUnits="userSpaceOnUse">
<stop stop-color="#2A3B8F"/>
<stop offset="1" stop-color="#29ABE2"/>
</linearGradient>
<linearGradient id="paint1_linear" x1="1209.87" y1="253.221" x2="1250.41" y2="250.87" gradientUnits="userSpaceOnUse">
<stop stop-color="#2A3B8F"/>
<stop offset="1" stop-color="#29ABE2"/>
</linearGradient>
<linearGradient id="paint2_linear" x1="1240.54" y1="286.956" x2="1186.47" y2="290.093" gradientUnits="userSpaceOnUse">
<stop stop-color="#B4D44E"/>
<stop offset="1" stop-color="#E7F716"/>
</linearGradient>
<linearGradient id="paint3_linear" x1="1250.68" y1="255.548" x2="1210.14" y2="257.899" gradientUnits="userSpaceOnUse">
<stop stop-color="#B4D44E"/>
<stop offset="1" stop-color="#E7F716"/>
</linearGradient>
<clipPath id="clip0">
<rect width="160" height="142.5" fill="white" transform="translate(32 160.75)"/>
</clipPath>
<clipPath id="clip1">
<rect width="40" height="45.7143" fill="white" transform="translate(578.956 297.143)"/>
</clipPath>
<clipPath id="clip2">
<rect width="120" height="135.938" fill="white" transform="translate(650.956 252.031)"/>
</clipPath>
<clipPath id="clip3">
<rect width="120" height="98.3851" fill="white" transform="matrix(0.878817 -0.477159 0.0579125 0.998322 1143 251.229)"/>
</clipPath>
</defs>
</svg>
