<svg width="1356" height="328" viewBox="0 0 1356 328" fill="none" xmlns="http://www.w3.org/2000/svg">
<rect width="1356" height="327.039" fill="white"/>
<rect x="432" y="53" width="432" height="242.039" rx="16" fill="#F7FAFC"/>
<path d="M527.167 106.833H485.5C482.185 106.833 479.005 108.15 476.661 110.495C474.317 112.839 473 116.018 473 119.333V123.5H468.833C465.518 123.5 462.339 124.817 459.994 127.161C457.65 129.505 456.333 132.685 456.333 136V177.667C456.333 180.982 457.65 184.161 459.994 186.506C462.339 188.85 465.518 190.167 468.833 190.167H510.5C513.815 190.167 516.995 188.85 519.339 186.506C521.683 184.161 523 180.982 523 177.667V173.5H527.167C530.482 173.5 533.661 172.183 536.005 169.839C538.35 167.495 539.667 164.315 539.667 161V119.333C539.667 116.018 538.35 112.839 536.005 110.495C533.661 108.15 530.482 106.833 527.167 106.833ZM514.667 177.667C514.667 178.772 514.228 179.832 513.446 180.613C512.665 181.394 511.605 181.833 510.5 181.833H468.833C467.728 181.833 466.668 181.394 465.887 180.613C465.106 179.832 464.667 178.772 464.667 177.667V148.5H514.667V177.667ZM514.667 140.167H464.667V136C464.667 134.895 465.106 133.835 465.887 133.054C466.668 132.272 467.728 131.833 468.833 131.833H510.5C511.605 131.833 512.665 132.272 513.446 133.054C514.228 133.835 514.667 134.895 514.667 136V140.167ZM531.333 161C531.333 162.105 530.894 163.165 530.113 163.946C529.331 164.728 528.272 165.167 527.167 165.167H523V136C522.989 134.579 522.735 133.169 522.25 131.833H531.333V161ZM531.333 123.5H481.333V119.333C481.333 118.228 481.772 117.168 482.554 116.387C483.335 115.606 484.395 115.167 485.5 115.167H527.167C528.272 115.167 529.331 115.606 530.113 116.387C530.894 117.168 531.333 118.228 531.333 119.333V123.5Z" fill="#2D3748"/>
<path d="M584 69V154.973L647.992 191.45V166.654L605.182 142.251V103.921L647.992 128.324V105.478L584 69Z" fill="#002A41"/>
<path d="M711.983 69V154.973L647.992 191.45V166.654L690.801 142.251V103.921L647.991 128.324V105.478L711.984 69H711.983Z" fill="#0071B5"/>
<path d="M584 227.966V141.994L647.992 105.516V130.312L605.182 154.715V191.095L647.992 166.692V191.488L584 227.966Z" fill="#0071B5"/>
<path d="M711.983 227.966V141.994L647.992 105.516V130.312L690.801 154.715V191.095L647.991 166.692V191.488L711.983 227.966V227.966Z" fill="#002A41"/>
<path d="M821.611 109.833C811.25 109.833 800.778 113.5 800.778 120.472V124.889C802.638 124.975 804.493 125.16 806.333 125.444V120.472C806.333 118.667 812.139 115.361 821.611 115.361C831.083 115.361 836.889 118.694 836.889 120.472V149.167C836.889 150.667 832.833 153.167 826.056 153.972V159.528C834.75 158.639 842.444 155.083 842.444 149.111V120.472C842.444 113.5 831.972 109.833 821.611 109.833Z" fill="#2D3748"/>
<path d="M759.111 149.167V120.472C759.111 118.667 764.917 115.361 774.389 115.361C783.861 115.361 789.667 118.694 789.667 120.472V125.444C791.507 125.16 793.362 124.975 795.222 124.889V120.472C795.222 113.472 784.75 109.806 774.389 109.806C764.028 109.806 753.556 113.5 753.556 120.472V149.167C753.556 155.167 761.25 158.694 769.945 159.611V154.056C763.167 153.167 759.111 150.667 759.111 149.167Z" fill="#2D3748"/>
<path d="M798 128.639C784.306 128.639 773.972 133.861 773.972 140.806V175C773.972 181.944 784.306 187.167 798 187.167C811.695 187.167 822.028 181.944 822.028 175V140.806C822.028 133.861 811.695 128.639 798 128.639V128.639ZM816.472 149.944C814.111 152.722 806.972 155.5 798 155.5C794.247 155.539 790.507 155.053 786.889 154.056V158.111C790.525 159.003 794.257 159.442 798 159.417C804.437 159.678 810.823 158.18 816.472 155.083V163.75C814.111 166.528 806.972 169.306 798 169.306C794.246 169.335 790.506 168.84 786.889 167.833V171.889C790.525 172.781 794.257 173.219 798 173.194C804.437 173.456 810.823 171.957 816.472 168.861V175.222C816.472 177.861 809.111 181.833 798 181.833C786.889 181.833 779.528 177.861 779.528 175.222V140.806C779.528 138.167 786.889 134.194 798 134.194C809.111 134.194 816.472 138.167 816.472 140.806V149.944Z" fill="#2D3748"/>
<path d="M535.266 278.594H547.078C548.766 278.594 550.328 278.383 551.766 277.961C553.219 277.523 554.469 276.883 555.516 276.039C556.562 275.211 557.383 274.18 557.977 272.945C558.57 271.711 558.859 270.281 558.844 268.656C558.844 267.734 558.711 266.859 558.445 266.031C558.195 265.188 557.82 264.422 557.32 263.734C556.836 263.094 556.234 262.523 555.516 262.023C554.797 261.508 553.93 261.117 552.914 260.852V260.805C553.602 260.523 554.203 260.211 554.719 259.867C555.25 259.508 555.727 259.094 556.148 258.625C556.742 257.984 557.195 257.25 557.508 256.422C557.836 255.578 558.008 254.672 558.023 253.703C558.023 252.109 557.719 250.734 557.109 249.578C556.516 248.406 555.688 247.445 554.625 246.695C553.562 245.945 552.305 245.391 550.852 245.031C549.398 244.656 547.844 244.469 546.188 244.469H535.266V278.594ZM540.938 263.172H547.406C548.328 263.188 549.148 263.328 549.867 263.594C550.586 263.844 551.195 264.203 551.695 264.672C552.195 265.141 552.57 265.711 552.82 266.383C553.07 267.039 553.195 267.797 553.195 268.656C553.195 269.469 553.039 270.211 552.727 270.883C552.43 271.539 552 272.094 551.438 272.547C550.922 272.984 550.297 273.328 549.562 273.578C548.828 273.828 548.016 273.953 547.125 273.953H540.938V263.172ZM540.938 258.883V249.133H546.258C547.227 249.148 548.109 249.266 548.906 249.484C549.703 249.688 550.367 250.023 550.898 250.492C551.367 250.867 551.727 251.352 551.977 251.945C552.242 252.523 552.375 253.211 552.375 254.008C552.375 254.758 552.234 255.422 551.953 256C551.672 256.578 551.289 257.07 550.805 257.477C550.273 257.93 549.617 258.273 548.836 258.508C548.07 258.742 547.227 258.867 546.305 258.883H540.938Z" fill="#2D3748"/>
<path d="M580.711 270.742L583.008 278.594H588.844L577.922 244.469H572.93L561.82 278.594H567.68L570 270.742H580.711ZM571.43 265.914L575.414 252.414L579.328 265.914H571.43Z" fill="#2D3748"/>
<path d="M610.758 269.805C610.758 270.555 610.594 271.219 610.266 271.797C609.953 272.375 609.531 272.859 609 273.25C608.453 273.656 607.805 273.961 607.055 274.164C606.32 274.367 605.523 274.469 604.664 274.469C603.648 274.469 602.711 274.344 601.852 274.094C601.008 273.844 600.273 273.461 599.648 272.945C599.008 272.445 598.5 271.812 598.125 271.047C597.766 270.266 597.547 269.352 597.469 268.305H591.844C591.859 269.961 592.188 271.422 592.828 272.688C593.484 273.938 594.367 275.031 595.477 275.969C596.68 276.969 598.094 277.734 599.719 278.266C601.344 278.781 602.992 279.039 604.664 279.039C606.242 279.039 607.742 278.844 609.164 278.453C610.586 278.047 611.836 277.445 612.914 276.648C613.977 275.883 614.82 274.922 615.445 273.766C616.086 272.609 616.406 271.273 616.406 269.758C616.406 268.117 616.039 266.672 615.305 265.422C614.586 264.156 613.625 263.07 612.422 262.164C611.453 261.445 610.391 260.836 609.234 260.336C608.094 259.82 606.922 259.391 605.719 259.047C604.766 258.766 603.852 258.461 602.977 258.133C602.117 257.805 601.352 257.422 600.68 256.984C600.023 256.547 599.5 256.039 599.109 255.461C598.719 254.867 598.516 254.18 598.5 253.398C598.5 252.664 598.648 252 598.945 251.406C599.242 250.812 599.656 250.305 600.188 249.883C600.719 249.477 601.344 249.164 602.062 248.945C602.797 248.711 603.594 248.594 604.453 248.594C605.438 248.594 606.305 248.742 607.055 249.039C607.82 249.32 608.469 249.711 609 250.211C609.516 250.727 609.914 251.344 610.195 252.062C610.492 252.766 610.68 253.547 610.758 254.406H616.336C616.336 252.859 616.023 251.453 615.398 250.188C614.789 248.906 613.953 247.805 612.891 246.883C611.828 245.977 610.578 245.273 609.141 244.773C607.719 244.258 606.18 244 604.523 244C602.961 244 601.469 244.219 600.047 244.656C598.641 245.078 597.406 245.695 596.344 246.508C595.281 247.336 594.438 248.336 593.812 249.508C593.188 250.664 592.875 251.969 592.875 253.422C592.875 254.766 593.141 255.977 593.672 257.055C594.219 258.117 594.969 259.07 595.922 259.914C596.875 260.742 598.023 261.484 599.367 262.141C600.727 262.797 602.211 263.359 603.82 263.828C604.867 264.125 605.812 264.461 606.656 264.836C607.516 265.195 608.258 265.602 608.883 266.055C609.477 266.539 609.938 267.086 610.266 267.695C610.594 268.305 610.758 269.008 610.758 269.805Z" fill="#2D3748"/>
<path d="M641.859 263.289V258.742H627.75V249.133H644.109V244.469H622.102V278.594H644.227V273.953H627.75V263.289H641.859Z" fill="#2D3748"/>
<path d="M696.023 270.742L698.32 278.594H704.156L693.234 244.469H688.242L677.133 278.594H682.992L685.312 270.742H696.023ZM686.742 265.914L690.727 252.414L694.641 265.914H686.742Z" fill="#2D3748"/>
<path d="M714.328 265.586H720.117C721.836 265.586 723.414 265.336 724.852 264.836C726.305 264.336 727.555 263.633 728.602 262.727C729.648 261.805 730.461 260.703 731.039 259.422C731.617 258.141 731.906 256.719 731.906 255.156C731.906 253.516 731.617 252.039 731.039 250.727C730.461 249.414 729.648 248.297 728.602 247.375C727.555 246.453 726.305 245.742 724.852 245.242C723.414 244.742 721.836 244.484 720.117 244.469H708.703V278.594H714.328V265.586ZM714.328 260.992V249.062H720.117C721.07 249.062 721.922 249.219 722.672 249.531C723.438 249.828 724.086 250.25 724.617 250.797C725.148 251.344 725.547 251.992 725.812 252.742C726.094 253.477 726.234 254.297 726.234 255.203C726.234 256.031 726.094 256.797 725.812 257.5C725.547 258.203 725.148 258.812 724.617 259.328C724.086 259.844 723.438 260.25 722.672 260.547C721.922 260.828 721.07 260.977 720.117 260.992H714.328Z" fill="#2D3748"/>
<path d="M743.156 265.586H748.945C750.664 265.586 752.242 265.336 753.68 264.836C755.133 264.336 756.383 263.633 757.43 262.727C758.477 261.805 759.289 260.703 759.867 259.422C760.445 258.141 760.734 256.719 760.734 255.156C760.734 253.516 760.445 252.039 759.867 250.727C759.289 249.414 758.477 248.297 757.43 247.375C756.383 246.453 755.133 245.742 753.68 245.242C752.242 244.742 750.664 244.484 748.945 244.469H737.531V278.594H743.156V265.586ZM743.156 260.992V249.062H748.945C749.898 249.062 750.75 249.219 751.5 249.531C752.266 249.828 752.914 250.25 753.445 250.797C753.977 251.344 754.375 251.992 754.641 252.742C754.922 253.477 755.062 254.297 755.062 255.203C755.062 256.031 754.922 256.797 754.641 257.5C754.375 258.203 753.977 258.812 753.445 259.328C752.914 259.844 752.266 260.25 751.5 260.547C750.75 260.828 749.898 260.977 748.945 260.992H743.156Z" fill="#2D3748"/>
<path d="M1272.74 101.293L1272.92 101.774L1273.42 101.905C1301.46 109.316 1322.15 134.895 1322.15 165.292C1322.15 201.528 1292.8 230.876 1256.6 230.876H1091.4C1055.2 230.876 1025.85 201.528 1025.85 165.292C1025.85 134.83 1046.61 109.251 1074.71 101.873L1075.21 101.742L1075.39 101.26C1090.5 61.4187 1128.99 33.1243 1174.07 33.1243C1219.15 33.1243 1257.64 61.4515 1272.74 101.293Z" fill="#EDF2F7" stroke="#CBD5E0" stroke-width="2"/>
<g clip-path="url(#clip0)">
<path fill-rule="evenodd" clip-rule="evenodd" d="M1267.4 124.95C1265.15 124.95 1263.8 126.55 1263.8 128.55V149.3C1263.8 152.15 1262.08 154.45 1258.65 154.45C1255.25 154.45 1253.5 152.15 1253.5 149.3V128.55C1253.5 126.575 1252.15 124.95 1249.9 124.95C1247.65 124.95 1246.3 126.55 1246.3 128.55V149.325H1246.33C1246.58 155.775 1250.75 160.9 1258.65 160.9C1266.55 160.9 1270.7 155.775 1270.98 149.325H1271V128.55C1271 126.575 1269.65 124.95 1267.4 124.95V124.95ZM1235.08 143.55C1232.53 140.975 1226.75 138.5 1225.25 136.7C1224.33 135.675 1224.2 134.1 1225.03 132.925C1225.53 132.225 1226.28 131.8 1227.05 131.65C1228.45 131.4 1229.88 131.6 1231 132.05C1232.48 132.625 1233.55 133.475 1234.7 133.55C1235.75 133.625 1236.83 133.175 1237.5 132.225C1238.35 131 1238.2 129.35 1237.23 128.3C1234.45 124.975 1228.75 124.65 1225.95 125.1C1223.2 125.55 1220.55 126.9 1218.9 129.25C1216.18 133.125 1216.7 138.325 1219.78 141.675C1222.1 144.325 1225.63 145.675 1228.33 147.4C1228.9 147.775 1229.63 148.3 1230 148.7C1231.15 149.875 1231.33 151.725 1230.38 153.1C1229.88 153.8 1229.18 154.25 1228.43 154.45C1227.73 154.65 1226.85 154.7 1226.33 154.675C1224 154.625 1221.55 153.025 1220.85 152.725C1219.55 152.15 1217.98 152.55 1217.13 153.775C1216.4 154.8 1216.43 156.075 1217 157.1C1217.35 157.725 1218 158.475 1218.85 159.025C1223.05 161.825 1227.98 161.35 1230.75 160.625C1232.98 160.025 1235.08 158.825 1236.5 156.7C1239.38 152.55 1238.7 146.925 1235.08 143.55V143.55ZM1208.55 125.45H1189.93C1188.13 125.45 1186.65 126.5 1186.65 128.725C1186.65 130.95 1188.13 132 1189.93 132H1195.68V157.3C1195.68 159.275 1196.83 160.9 1199.28 160.9C1201.7 160.9 1202.88 159.3 1202.88 157.3V132H1208.55C1210.35 132 1211.83 130.95 1211.83 128.725C1211.83 126.525 1210.38 125.45 1208.55 125.45ZM1176.1 124.95C1173.85 124.95 1172.5 126.55 1172.5 128.55V157.3C1172.5 159.275 1173.65 160.9 1176.1 160.9C1178.53 160.9 1179.7 159.3 1179.7 157.3V128.55C1179.7 126.575 1178.35 124.95 1176.1 124.95V124.95ZM1163.63 155.65L1155.78 140.6C1161.6 133.575 1162.45 129.425 1162.55 128.8C1162.58 128.625 1162.6 128.425 1162.6 128.225C1162.6 126.425 1161.15 124.975 1159.35 124.975C1158.1 124.975 1157.03 125.7 1156.38 126.7C1155.75 127.7 1154.6 130.45 1151.18 135.225C1149.1 138.1 1146.83 140.45 1146 141.275V128.575C1146 126.6 1144.65 124.975 1142.4 124.975C1140.15 124.975 1138.8 126.575 1138.8 128.575V157.325C1138.8 159.3 1139.95 160.925 1142.4 160.925C1144.83 160.925 1146 159.325 1146 157.325V150.375C1146.78 149.625 1148.5 147.975 1150.43 145.975L1157.2 159C1158.13 160.775 1160.18 161.325 1162.05 160.65C1163.95 159.9 1164.55 157.4 1163.63 155.65V155.65Z" fill="#1A202C"/>
<path fill-rule="evenodd" clip-rule="evenodd" d="M1109.18 126.125C1107.48 125.5 1105.65 125.1 1103.73 125.025C1100.55 124.875 1097.53 125.575 1094.88 126.925C1094.73 127 1094.55 127.075 1094.38 127.175V136.275C1094.38 136.4 1094.38 136.875 1094.3 137.275C1094.13 138.2 1093.58 139.025 1092.8 139.55C1092.15 140 1091.4 140.2 1090.6 140.175C1090.45 140.175 1090.28 140.15 1090.13 140.125C1089.73 140.05 1089.3 139.9 1089.18 139.85C1088.83 139.725 1083.73 137.75 1081.28 136.8C1080.98 136.675 1080.73 136.575 1080.53 136.5C1077.6 138.975 1074.53 141.925 1071.65 145.4C1071.63 145.425 1071.5 145.575 1071.48 145.6C1071.1 146.125 1071.08 146.875 1071.48 147.45C1071.78 147.875 1072.25 148.125 1072.73 148.15C1073.05 148.175 1073.4 148.075 1073.7 147.875C1073.73 147.85 1073.75 147.825 1073.8 147.8C1076.85 145.6 1080.2 143.825 1083.75 142.4C1084 142.275 1084.3 142.2 1084.58 142.225C1084.98 142.25 1085.35 142.4 1085.65 142.7C1086.23 143.275 1086.25 144.2 1085.78 144.825C1085.58 145.125 1085.4 145.425 1085.23 145.725C1083.33 148.825 1081.8 152.2 1080.65 155.725C1080.63 155.825 1080.6 155.9 1080.58 156V156.025C1080.48 156.45 1080.55 156.9 1080.83 157.275C1081.13 157.7 1081.6 157.95 1082.1 157.975C1082.45 158 1082.78 157.9 1083.08 157.7C1083.2 157.6 1083.33 157.5 1083.43 157.375C1083.45 157.325 1083.5 157.275 1083.53 157.225C1084.78 155.45 1086.15 153.775 1087.63 152.225C1094.2 145.175 1102.93 140.2 1112.7 138.25C1112.78 138.225 1112.85 138.225 1112.93 138.225C1113.48 138.25 1113.9 138.725 1113.88 139.275C1113.85 139.75 1113.53 140.1 1113.08 140.2C1104 142.125 1087.65 152.9 1093.38 168.55C1093.48 168.8 1093.55 168.95 1093.68 169.175C1093.98 169.6 1094.45 169.85 1094.93 169.875C1095.2 169.875 1095.98 169.8 1096.45 168.95C1097.38 167.2 1099.13 165.25 1104.18 163.15C1118.25 157.325 1120.58 149 1120.83 143.725V143.425C1121.05 135.575 1116.18 128.725 1109.18 126.125V126.125ZM1095.05 167.375C1093.75 163.5 1093.88 159.75 1095.4 156.175C1098.33 160.9 1103.43 161.3 1103.43 161.3C1098.2 163.475 1096.15 165.625 1095.05 167.375Z" fill="#E75E45"/>
<path fill-rule="evenodd" clip-rule="evenodd" d="M1071.27 126.65C1071.3 126.7 1071.35 126.75 1071.37 126.775C1072.7 128.575 1074.2 130.15 1075.82 131.55C1075.85 131.575 1075.87 131.575 1075.87 131.6C1076.92 132.5 1078.92 133.8 1080.37 134.325C1080.37 134.325 1089.4 137.8 1089.87 138C1090.05 138.075 1090.3 138.15 1090.42 138.175C1090.82 138.25 1091.25 138.175 1091.62 137.925C1092 137.675 1092.22 137.3 1092.3 136.9C1092.32 136.75 1092.35 136.5 1092.35 136.325V126.125C1092.37 124.575 1091.87 122.225 1091.42 120.925C1091.42 120.9 1091.4 120.875 1091.4 120.85C1090.7 118.825 1089.75 116.85 1088.55 114.975L1088.47 114.825L1088.45 114.8C1087.95 114.1 1086.95 113.925 1086.22 114.425C1086.1 114.5 1086.02 114.6 1085.92 114.7C1085.85 114.8 1085.8 114.875 1085.72 114.975C1084.12 117.3 1083.47 120.125 1083.9 122.9C1083.07 123.325 1082.2 123.9 1082.1 123.975C1082 124.05 1081.12 124.65 1080.45 125.275C1078.02 123.9 1075.12 123.475 1072.4 124.125C1072.3 124.15 1072.17 124.175 1072.07 124.2C1071.95 124.25 1071.82 124.3 1071.72 124.375C1071 124.875 1070.8 125.85 1071.27 126.6V126.65V126.65ZM1087.15 116.625C1088 118.05 1088.72 119.525 1089.3 121.075C1088.15 121.275 1087.02 121.575 1085.92 121.975C1085.77 120.1 1086.2 118.25 1087.15 116.625V116.625ZM1078.87 126.825C1078.07 127.7 1077.4 128.65 1076.8 129.65C1075.57 128.575 1074.45 127.35 1073.42 126.05C1075.3 125.725 1077.17 126 1078.87 126.825Z" fill="#E75E45"/>
</g>
<path d="M1123.84 174.234V186.105C1123.83 186.59 1123.74 187.051 1123.59 187.488C1123.44 187.918 1123.22 188.297 1122.94 188.625C1122.65 188.953 1122.3 189.215 1121.9 189.41C1121.49 189.598 1121.03 189.691 1120.52 189.691C1120.02 189.691 1119.56 189.609 1119.16 189.445C1118.76 189.281 1118.41 189.047 1118.12 188.742C1117.84 188.445 1117.61 188.094 1117.43 187.688C1117.27 187.281 1117.18 186.84 1117.15 186.363H1114.95C1115.02 187.152 1115.2 187.867 1115.49 188.508C1115.78 189.141 1116.16 189.68 1116.65 190.125C1117.12 190.578 1117.69 190.926 1118.34 191.168C1118.99 191.41 1119.72 191.531 1120.52 191.531C1121.3 191.531 1122.03 191.398 1122.7 191.133C1123.37 190.859 1123.95 190.48 1124.44 189.996C1124.93 189.52 1125.32 188.949 1125.6 188.285C1125.89 187.621 1126.04 186.895 1126.06 186.105V174.234H1123.84Z" fill="#1A202C"/>
<path d="M1139.18 186.984C1139.18 187.453 1139.08 187.859 1138.88 188.203C1138.68 188.539 1138.41 188.816 1138.09 189.035C1137.77 189.262 1137.41 189.43 1136.99 189.539C1136.59 189.641 1136.17 189.691 1135.75 189.691C1135.22 189.691 1134.73 189.621 1134.27 189.48C1133.83 189.332 1133.43 189.113 1133.09 188.824C1132.75 188.543 1132.46 188.199 1132.25 187.793C1132.03 187.379 1131.88 186.906 1131.81 186.375H1129.6C1129.62 187.109 1129.78 187.777 1130.08 188.379C1130.38 188.973 1130.79 189.492 1131.31 189.938C1131.89 190.453 1132.57 190.848 1133.35 191.121C1134.14 191.395 1134.94 191.531 1135.75 191.531C1136.43 191.531 1137.11 191.438 1137.79 191.25C1138.47 191.055 1139.08 190.766 1139.62 190.383C1140.16 190.008 1140.59 189.535 1140.93 188.965C1141.27 188.395 1141.45 187.727 1141.45 186.961C1141.45 186.203 1141.29 185.535 1140.96 184.957C1140.65 184.379 1140.24 183.891 1139.72 183.492C1139.2 183.062 1138.62 182.711 1137.99 182.438C1137.36 182.156 1136.72 181.918 1136.09 181.723C1135.71 181.605 1135.3 181.469 1134.86 181.312C1134.43 181.156 1134.03 180.961 1133.66 180.727C1133.29 180.492 1132.98 180.207 1132.74 179.871C1132.5 179.527 1132.37 179.109 1132.36 178.617C1132.36 178.164 1132.45 177.766 1132.63 177.422C1132.82 177.078 1133.07 176.789 1133.38 176.555C1133.69 176.32 1134.04 176.145 1134.43 176.027C1134.82 175.91 1135.23 175.852 1135.64 175.852C1136.16 175.852 1136.62 175.934 1137.03 176.098C1137.44 176.254 1137.8 176.477 1138.09 176.766C1138.39 177.055 1138.63 177.402 1138.81 177.809C1138.99 178.207 1139.11 178.652 1139.17 179.145H1141.4C1141.38 178.363 1141.21 177.656 1140.89 177.023C1140.57 176.391 1140.15 175.852 1139.62 175.406C1139.09 174.961 1138.48 174.617 1137.79 174.375C1137.1 174.125 1136.39 174 1135.64 174C1134.97 174 1134.3 174.105 1133.64 174.316C1132.98 174.52 1132.38 174.82 1131.86 175.219C1131.34 175.617 1130.91 176.105 1130.58 176.684C1130.26 177.262 1130.1 177.918 1130.1 178.652C1130.1 179.387 1130.26 180.027 1130.58 180.574C1130.91 181.113 1131.33 181.582 1131.85 181.98C1132.36 182.371 1132.92 182.707 1133.54 182.988C1134.16 183.262 1134.77 183.496 1135.38 183.691C1135.79 183.824 1136.22 183.973 1136.66 184.137C1137.12 184.301 1137.53 184.504 1137.91 184.746C1138.28 184.996 1138.59 185.301 1138.82 185.66C1139.06 186.02 1139.18 186.461 1139.18 186.984Z" fill="#1A202C"/>
<path d="M1155.77 183.75V181.805C1155.76 181.195 1155.7 180.578 1155.6 179.953C1155.51 179.328 1155.36 178.727 1155.16 178.148C1154.95 177.57 1154.68 177.031 1154.36 176.531C1154.05 176.023 1153.67 175.582 1153.23 175.207C1152.8 174.832 1152.29 174.539 1151.72 174.328C1151.15 174.109 1150.52 174 1149.81 174C1149.11 174 1148.47 174.109 1147.9 174.328C1147.34 174.539 1146.84 174.832 1146.4 175.207C1145.96 175.59 1145.59 176.035 1145.27 176.543C1144.95 177.043 1144.7 177.582 1144.49 178.16C1144.28 178.738 1144.12 179.34 1144.02 179.965C1143.93 180.582 1143.88 181.195 1143.87 181.805V183.75C1143.88 184.359 1143.93 184.973 1144.04 185.59C1144.14 186.207 1144.29 186.805 1144.5 187.383C1144.71 187.961 1144.97 188.504 1145.29 189.012C1145.61 189.512 1145.99 189.949 1146.43 190.324C1146.86 190.699 1147.36 190.996 1147.93 191.215C1148.5 191.426 1149.13 191.531 1149.84 191.531C1150.54 191.531 1151.17 191.426 1151.73 191.215C1152.3 190.996 1152.81 190.699 1153.25 190.324C1153.68 189.949 1154.06 189.512 1154.37 189.012C1154.69 188.512 1154.95 187.973 1155.16 187.395C1155.36 186.816 1155.51 186.219 1155.6 185.602C1155.7 184.977 1155.76 184.359 1155.77 183.75ZM1153.62 181.781V183.75C1153.61 184.156 1153.59 184.582 1153.54 185.027C1153.5 185.473 1153.43 185.91 1153.32 186.34C1153.2 186.777 1153.05 187.195 1152.86 187.594C1152.68 187.984 1152.45 188.328 1152.18 188.625C1151.9 188.93 1151.56 189.172 1151.17 189.352C1150.79 189.531 1150.34 189.621 1149.84 189.621C1149.33 189.621 1148.88 189.531 1148.5 189.352C1148.12 189.172 1147.79 188.93 1147.5 188.625C1147.22 188.328 1146.99 187.98 1146.8 187.582C1146.61 187.184 1146.46 186.766 1146.34 186.328C1146.23 185.898 1146.14 185.461 1146.09 185.016C1146.04 184.57 1146.01 184.148 1146 183.75V181.781C1146.01 181.383 1146.04 180.965 1146.09 180.527C1146.14 180.082 1146.23 179.641 1146.34 179.203C1146.45 178.773 1146.6 178.363 1146.79 177.973C1146.98 177.574 1147.21 177.223 1147.49 176.918C1147.77 176.621 1148.11 176.383 1148.49 176.203C1148.87 176.023 1149.31 175.934 1149.81 175.934C1150.32 175.934 1150.77 176.023 1151.15 176.203C1151.53 176.375 1151.86 176.609 1152.14 176.906C1152.43 177.211 1152.66 177.562 1152.85 177.961C1153.04 178.352 1153.19 178.762 1153.3 179.191C1153.41 179.629 1153.49 180.07 1153.54 180.516C1153.59 180.953 1153.61 181.375 1153.62 181.781Z" fill="#1A202C"/>
<path d="M1169.77 191.297V174.234H1167.58L1167.54 186.961L1160.92 174.234H1158.72V191.297H1160.91L1160.95 178.547L1167.57 191.297H1169.77Z" fill="#1A202C"/>
<path d="M1177.86 189.891C1177.86 190.344 1178 190.73 1178.28 191.051C1178.57 191.363 1178.99 191.52 1179.55 191.52C1180.11 191.52 1180.54 191.363 1180.83 191.051C1181.13 190.738 1181.28 190.352 1181.28 189.891C1181.28 189.422 1181.13 189.027 1180.83 188.707C1180.54 188.379 1180.12 188.215 1179.55 188.215C1178.98 188.215 1178.56 188.379 1178.28 188.707C1178 189.035 1177.86 189.43 1177.86 189.891ZM1177.86 179.625C1177.86 180.078 1178 180.465 1178.28 180.785C1178.57 181.098 1178.99 181.254 1179.55 181.254C1180.11 181.254 1180.54 181.098 1180.83 180.785C1181.13 180.473 1181.28 180.086 1181.28 179.625C1181.28 179.156 1181.13 178.762 1180.83 178.441C1180.54 178.113 1180.12 177.949 1179.55 177.949C1178.98 177.949 1178.56 178.113 1178.28 178.441C1178 178.77 1177.86 179.164 1177.86 179.625Z" fill="#1A202C"/>
<path d="M1196.05 186.879L1197.4 191.297H1199.56L1194.14 174.234H1192.33L1186.82 191.297H1188.99L1190.36 186.879H1196.05ZM1190.95 184.992L1193.23 177.586L1195.48 184.992H1190.95Z" fill="#1A202C"/>
<path d="M1204.69 184.453H1208.05C1208.82 184.445 1209.54 184.328 1210.22 184.102C1210.91 183.875 1211.51 183.547 1212.03 183.117C1212.54 182.688 1212.95 182.16 1213.25 181.535C1213.55 180.902 1213.7 180.176 1213.7 179.355C1213.7 178.535 1213.55 177.809 1213.25 177.176C1212.95 176.543 1212.54 176.012 1212.03 175.582C1211.51 175.152 1210.91 174.824 1210.22 174.598C1209.54 174.371 1208.82 174.25 1208.05 174.234H1202.52V191.297H1204.69V184.453ZM1204.69 182.672V176.016H1208.05C1208.55 176.023 1209.02 176.105 1209.44 176.262C1209.87 176.418 1210.24 176.641 1210.55 176.93C1210.86 177.219 1211.09 177.57 1211.27 177.984C1211.45 178.398 1211.54 178.863 1211.54 179.379C1211.54 179.895 1211.45 180.355 1211.27 180.762C1211.09 181.16 1210.85 181.5 1210.54 181.781C1210.23 182.062 1209.86 182.281 1209.44 182.438C1209.02 182.586 1208.55 182.664 1208.05 182.672H1204.69Z" fill="#1A202C"/>
<path d="M1216.74 174.234V176.121H1220.73V189.422H1216.74V191.297H1227.05V189.422H1222.96V176.121H1227.05V174.234H1216.74Z" fill="#1A202C"/>
<path d="M996.066 175.061C996.651 174.475 996.651 173.525 996.066 172.939L986.52 163.393C985.934 162.808 984.984 162.808 984.398 163.393C983.813 163.979 983.813 164.929 984.398 165.515L992.884 174L984.398 182.485C983.813 183.071 983.813 184.021 984.398 184.607C984.984 185.192 985.934 185.192 986.52 184.607L996.066 175.061ZM893 175.5H995.005V172.5H893V175.5Z" fill="#2D3748"/>
<path d="M891.939 136.939C891.354 137.525 891.354 138.475 891.939 139.061L901.485 148.607C902.071 149.192 903.021 149.192 903.607 148.607C904.192 148.021 904.192 147.071 903.607 146.485L895.121 138L903.607 129.515C904.192 128.929 904.192 127.979 903.607 127.393C903.021 126.808 902.071 126.808 901.485 127.393L891.939 136.939ZM995.005 136.5H893V139.5H995.005V136.5Z" fill="#2D3748"/>
<path d="M404.066 187.061C404.651 186.475 404.651 185.525 404.066 184.939L394.52 175.393C393.934 174.808 392.984 174.808 392.398 175.393C391.813 175.979 391.813 176.929 392.398 177.515L400.884 186L392.398 194.485C391.813 195.071 391.813 196.021 392.398 196.607C392.984 197.192 393.934 197.192 394.52 196.607L404.066 187.061ZM301 187.5H403.005V184.5H301V187.5Z" fill="#2D3748"/>
<path d="M299.939 148.939C299.354 149.525 299.354 150.475 299.939 151.061L309.485 160.607C310.071 161.192 311.021 161.192 311.607 160.607C312.192 160.021 312.192 159.071 311.607 158.485L303.121 150L311.607 141.515C312.192 140.929 312.192 139.979 311.607 139.393C311.021 138.808 310.071 138.808 309.485 139.393L299.939 148.939ZM403.005 148.5H301V151.5H403.005V148.5Z" fill="#2D3748"/>
<g clip-path="url(#clip1)">
<path d="M954.181 106.824C955.105 107.736 954.955 109.336 953.806 109.949C944.092 115.175 931.715 113.688 923.513 105.486C915.313 97.2854 913.824 84.9204 919.052 75.1944C919.663 74.0575 921.263 73.9071 922.177 74.8194L936.779 89.421L940.203 85.9968C940.117 85.6705 940.004 85.3716 940.004 85.02C940.004 84.2288 940.238 83.4554 940.678 82.7975C941.117 82.1396 941.742 81.6269 942.473 81.3241C943.204 81.0214 944.009 80.9422 944.785 81.0965C945.561 81.2509 946.273 81.6319 946.833 82.1914C947.392 82.7509 947.773 83.4637 947.928 84.2397C948.082 85.0157 948.003 85.8201 947.7 86.5511C947.397 87.2821 946.885 87.9069 946.227 88.3464C945.569 88.786 944.795 89.0206 944.004 89.0206C943.654 89.0206 943.354 88.9093 943.029 88.8214L939.603 92.2476L954.181 106.824ZM979.997 86.8835C980.012 87.1561 979.972 87.4289 979.878 87.6854C979.785 87.9419 979.64 88.1767 979.453 88.3756C979.266 88.5744 979.04 88.733 978.79 88.8419C978.54 88.9508 978.27 89.0076 977.997 89.0089H973.982C973.475 89.0074 972.987 88.8126 972.618 88.4643C972.249 88.1159 972.027 87.6402 971.996 87.1336C971.058 70.9438 958.057 57.8169 941.879 56.9418C941.371 56.9147 940.892 56.6931 940.543 56.3228C940.194 55.9526 940.001 55.4622 940.003 54.9533V51.0035C940.005 50.7305 940.061 50.4605 940.17 50.21C940.279 49.9596 940.438 49.7339 940.636 49.5468C940.835 49.3596 941.07 49.2149 941.327 49.1215C941.583 49.028 941.856 48.9877 942.129 49.0031C962.532 50.0776 978.934 66.4803 979.997 86.8835ZM967.995 86.8464C968.014 87.1227 967.976 87.3999 967.883 87.6608C967.791 87.9218 967.645 88.161 967.457 88.3636C967.268 88.5663 967.04 88.7281 966.786 88.8391C966.532 88.95 966.258 89.0078 965.981 89.0089H961.956C961.455 89.0052 960.974 88.8147 960.606 88.4747C960.239 88.1346 960.011 87.6696 959.969 87.1708C959.106 77.5444 951.454 69.807 941.853 69.0178C941.351 68.9818 940.881 68.7568 940.538 68.3882C940.195 68.0197 940.004 67.5348 940.003 67.0311V63.0169C940.003 62.7397 940.06 62.4655 940.171 62.2114C940.282 61.9573 940.444 61.7287 940.646 61.5399C940.849 61.3511 941.089 61.2061 941.351 61.1141C941.612 61.022 941.89 60.9849 942.166 61.0049C955.931 62.0675 966.944 73.0808 967.995 86.8464V86.8464Z" fill="#2D3748"/>
</g>
<path fill-rule="evenodd" clip-rule="evenodd" d="M48.8 99.8L152 47L255.2 99.8L152 150.202L48.8 99.8Z" fill="#FBF063"/>
<path fill-rule="evenodd" clip-rule="evenodd" d="M152.007 150.193L48.8 99.8V230.072L152.014 282.186L152.007 150.193Z" fill="#F29C1F"/>
<path fill-rule="evenodd" clip-rule="evenodd" d="M152 282.186L255.214 230.072V99.8L152.007 150.193L152 282.186Z" fill="#F0C419"/>
<path opacity="0.5" fill-rule="evenodd" clip-rule="evenodd" d="M96.8865 75.092L200.074 126.687L205.506 124.035L102.193 72.3776L96.8865 75.092Z" fill="#F29C1F"/>
<path opacity="0.5" fill-rule="evenodd" clip-rule="evenodd" d="M83.1631 82.2176L183.92 134.612L222.296 115.87L117.891 64.4504L83.1631 82.2176Z" fill="white"/>
<path opacity="0.5" fill-rule="evenodd" clip-rule="evenodd" d="M183.949 134.612L222.296 115.849V142.249L183.949 163.41V134.612V134.612Z" fill="white"/>
<g opacity="0.8" clip-path="url(#clip2)">
<path fill-rule="evenodd" clip-rule="evenodd" d="M250.432 175.918L242.326 198.31L228.515 187.573L240.303 163.427L250.432 175.918Z" fill="#166DA5"/>
<path fill-rule="evenodd" clip-rule="evenodd" d="M241.504 201.827L226.523 190.497L219.109 210.855L233.299 225.317L241.504 201.827Z" fill="#8FDB69"/>
<path fill-rule="evenodd" clip-rule="evenodd" d="M238.97 160.958L226.339 187.342L217.089 176.031L228.799 147.753L238.97 160.958Z" fill="#166DA5"/>
<path opacity="0.95" fill-rule="evenodd" clip-rule="evenodd" d="M197.102 183.691L238.971 160.958L228.695 147.809L205.271 160.527L197.102 183.691Z" fill="url(#paint0_linear)"/>
<path opacity="0.95" fill-rule="evenodd" clip-rule="evenodd" d="M226.343 187.401L249.504 174.826L240.247 163.396L217.033 176" fill="url(#paint1_linear)"/>
<path opacity="0.95" fill-rule="evenodd" clip-rule="evenodd" d="M241.507 201.887L199.428 224.733L209.704 237.882L233.285 225.078L241.507 201.887Z" fill="url(#paint2_linear)"/>
<path fill-rule="evenodd" clip-rule="evenodd" d="M209.704 237.882L187.757 209.887L205.477 160.354L183.888 172.076L166.482 221.438L188.377 249.462L209.704 237.882Z" fill="#010101"/>
<path opacity="0.95" fill-rule="evenodd" clip-rule="evenodd" d="M226.519 190.437L249.68 177.862L242.274 198.339L219.06 210.943" fill="url(#paint3_linear)"/>
</g>
<path d="M65.7927 222.992L67.1887 230.167L71.2622 232.449L64.5391 200.894L61.0546 198.943L52.3999 221.885L56.4897 224.176L58.3165 218.805L65.7927 222.992ZM59.4418 215.503L62.5791 206.267L64.9549 218.591L59.4418 215.503Z" fill="black"/>
<path d="M79.7042 209.387L74.8291 206.657L73.9288 233.942L77.6096 236.003L77.9151 226.746L78.0895 214.896L80.9955 229.33L83.0404 230.475L87.1347 219.503L86.5037 231.556L86.1982 240.813L89.8954 242.884L90.7958 215.598L85.9044 212.859L82.2636 222.711L79.7042 209.387Z" fill="black"/>
<path d="M94.0834 245.229L100.104 248.601C101.194 249.211 102.219 249.632 103.178 249.864C104.147 250.102 105.034 250.159 105.838 250.037C106.553 249.915 107.206 249.651 107.797 249.244C108.399 248.843 108.916 248.312 109.349 247.651C109.793 246.972 110.143 246.143 110.397 245.166C110.663 244.182 110.816 243.072 110.857 241.835L110.928 239.699C110.97 238.412 110.89 237.133 110.688 235.862C110.485 234.59 110.182 233.358 109.777 232.164C109.381 231.014 108.88 229.893 108.271 228.802C107.674 227.716 106.98 226.704 106.189 225.765C105.463 224.875 104.652 224.045 103.755 223.276C102.859 222.494 101.898 221.816 100.873 221.242L94.9838 217.944L94.0834 245.229ZM98.8379 223.843L100.752 224.915C101.385 225.269 101.971 225.68 102.511 226.148C103.051 226.616 103.534 227.116 103.961 227.647C104.548 228.371 105.049 229.16 105.465 230.017C105.881 230.873 106.208 231.762 106.444 232.683C106.63 233.424 106.766 234.193 106.851 234.992C106.936 235.79 106.964 236.601 106.937 237.426L106.865 239.6C106.838 240.437 106.757 241.193 106.624 241.869C106.49 242.545 106.31 243.138 106.082 243.646C105.818 244.236 105.491 244.715 105.102 245.082C104.712 245.449 104.265 245.683 103.762 245.782C103.281 245.882 102.743 245.867 102.148 245.737C101.563 245.601 100.922 245.337 100.224 244.946L98.1793 243.801L98.8379 223.843Z" fill="black"/>
<path d="M338.168 133.156H341.531C342.297 133.148 343.02 133.031 343.699 132.805C344.387 132.578 344.988 132.25 345.504 131.82C346.02 131.391 346.426 130.863 346.723 130.238C347.027 129.605 347.18 128.879 347.18 128.059C347.18 127.238 347.027 126.512 346.723 125.879C346.426 125.246 346.02 124.715 345.504 124.285C344.988 123.855 344.387 123.527 343.699 123.301C343.02 123.074 342.297 122.953 341.531 122.938H336V140H338.168V133.156ZM338.168 131.375V124.719H341.531C342.031 124.727 342.492 124.809 342.914 124.965C343.344 125.121 343.715 125.344 344.027 125.633C344.332 125.922 344.57 126.273 344.742 126.688C344.922 127.102 345.012 127.566 345.012 128.082C345.012 128.598 344.922 129.059 344.742 129.465C344.57 129.863 344.328 130.203 344.016 130.484C343.703 130.766 343.336 130.984 342.914 131.141C342.492 131.289 342.031 131.367 341.531 131.375H338.168Z" fill="#2D3748"/>
<path d="M355.863 133.039L359.215 140H361.5L361.512 139.859L357.891 132.57C358.359 132.367 358.789 132.121 359.18 131.832C359.57 131.543 359.906 131.211 360.188 130.836C360.469 130.461 360.688 130.043 360.844 129.582C361.008 129.121 361.09 128.613 361.09 128.059C361.09 127.199 360.938 126.453 360.633 125.82C360.336 125.18 359.926 124.648 359.402 124.227C358.871 123.805 358.254 123.488 357.551 123.277C356.848 123.066 356.098 122.953 355.301 122.938H350.297V140H352.453V133.039H355.863ZM352.453 131.258V124.719H355.301C355.824 124.727 356.305 124.801 356.742 124.941C357.188 125.082 357.57 125.289 357.891 125.562C358.211 125.844 358.461 126.191 358.641 126.605C358.82 127.012 358.91 127.488 358.91 128.035C358.91 128.551 358.816 129.008 358.629 129.406C358.441 129.797 358.188 130.129 357.867 130.402C357.539 130.676 357.16 130.887 356.73 131.035C356.301 131.176 355.844 131.25 355.359 131.258H352.453Z" fill="#2D3748"/>
<path d="M375.727 132.453V130.508C375.719 129.898 375.664 129.281 375.562 128.656C375.469 128.031 375.32 127.43 375.117 126.852C374.906 126.273 374.641 125.734 374.32 125.234C374.008 124.727 373.633 124.285 373.195 123.91C372.758 123.535 372.254 123.242 371.684 123.031C371.113 122.812 370.477 122.703 369.773 122.703C369.07 122.703 368.434 122.812 367.863 123.031C367.301 123.242 366.801 123.535 366.363 123.91C365.926 124.293 365.547 124.738 365.227 125.246C364.914 125.746 364.656 126.285 364.453 126.863C364.242 127.441 364.086 128.043 363.984 128.668C363.891 129.285 363.84 129.898 363.832 130.508V132.453C363.84 133.062 363.895 133.676 363.996 134.293C364.098 134.91 364.254 135.508 364.465 136.086C364.668 136.664 364.93 137.207 365.25 137.715C365.57 138.215 365.949 138.652 366.387 139.027C366.824 139.402 367.324 139.699 367.887 139.918C368.457 140.129 369.094 140.234 369.797 140.234C370.5 140.234 371.133 140.129 371.695 139.918C372.266 139.699 372.77 139.402 373.207 139.027C373.645 138.652 374.02 138.215 374.332 137.715C374.652 137.215 374.914 136.676 375.117 136.098C375.32 135.52 375.469 134.922 375.562 134.305C375.664 133.68 375.719 133.062 375.727 132.453ZM373.582 130.484V132.453C373.574 132.859 373.547 133.285 373.5 133.73C373.461 134.176 373.387 134.613 373.277 135.043C373.16 135.48 373.008 135.898 372.82 136.297C372.641 136.688 372.414 137.031 372.141 137.328C371.859 137.633 371.523 137.875 371.133 138.055C370.75 138.234 370.305 138.324 369.797 138.324C369.289 138.324 368.844 138.234 368.461 138.055C368.078 137.875 367.746 137.633 367.465 137.328C367.184 137.031 366.949 136.684 366.762 136.285C366.574 135.887 366.422 135.469 366.305 135.031C366.188 134.602 366.102 134.164 366.047 133.719C366 133.273 365.973 132.852 365.965 132.453V130.484C365.973 130.086 366 129.668 366.047 129.23C366.102 128.785 366.188 128.344 366.305 127.906C366.414 127.477 366.562 127.066 366.75 126.676C366.938 126.277 367.172 125.926 367.453 125.621C367.734 125.324 368.066 125.086 368.449 124.906C368.832 124.727 369.273 124.637 369.773 124.637C370.281 124.637 370.727 124.727 371.109 124.906C371.492 125.078 371.824 125.312 372.105 125.609C372.387 125.914 372.621 126.266 372.809 126.664C372.996 127.055 373.148 127.465 373.266 127.895C373.375 128.332 373.453 128.773 373.5 129.219C373.547 129.656 373.574 130.078 373.582 130.484Z" fill="#2D3748"/>
<path d="M381.41 133.156H384.773C385.539 133.148 386.262 133.031 386.941 132.805C387.629 132.578 388.23 132.25 388.746 131.82C389.262 131.391 389.668 130.863 389.965 130.238C390.27 129.605 390.422 128.879 390.422 128.059C390.422 127.238 390.27 126.512 389.965 125.879C389.668 125.246 389.262 124.715 388.746 124.285C388.23 123.855 387.629 123.527 386.941 123.301C386.262 123.074 385.539 122.953 384.773 122.938H379.242V140H381.41V133.156ZM381.41 131.375V124.719H384.773C385.273 124.727 385.734 124.809 386.156 124.965C386.586 125.121 386.957 125.344 387.27 125.633C387.574 125.922 387.812 126.273 387.984 126.688C388.164 127.102 388.254 127.566 388.254 128.082C388.254 128.598 388.164 129.059 387.984 129.465C387.812 129.863 387.57 130.203 387.258 130.484C386.945 130.766 386.578 130.984 386.156 131.141C385.734 131.289 385.273 131.367 384.773 131.375H381.41Z" fill="#2D3748"/>
<path d="M402.387 135.688C402.387 136.156 402.285 136.562 402.082 136.906C401.879 137.242 401.617 137.52 401.297 137.738C400.977 137.965 400.609 138.133 400.195 138.242C399.789 138.344 399.375 138.395 398.953 138.395C398.422 138.395 397.93 138.324 397.477 138.184C397.031 138.035 396.637 137.816 396.293 137.527C395.949 137.246 395.668 136.902 395.449 136.496C395.23 136.082 395.086 135.609 395.016 135.078H392.801C392.824 135.812 392.984 136.48 393.281 137.082C393.586 137.676 393.996 138.195 394.512 138.641C395.09 139.156 395.77 139.551 396.551 139.824C397.34 140.098 398.141 140.234 398.953 140.234C399.633 140.234 400.312 140.141 400.992 139.953C401.672 139.758 402.281 139.469 402.82 139.086C403.359 138.711 403.797 138.238 404.133 137.668C404.477 137.098 404.648 136.43 404.648 135.664C404.648 134.906 404.488 134.238 404.168 133.66C403.855 133.082 403.441 132.594 402.926 132.195C402.402 131.766 401.824 131.414 401.191 131.141C400.559 130.859 399.926 130.621 399.293 130.426C398.91 130.309 398.5 130.172 398.062 130.016C397.633 129.859 397.234 129.664 396.867 129.43C396.492 129.195 396.184 128.91 395.941 128.574C395.699 128.23 395.574 127.812 395.566 127.32C395.566 126.867 395.656 126.469 395.836 126.125C396.023 125.781 396.273 125.492 396.586 125.258C396.891 125.023 397.238 124.848 397.629 124.73C398.027 124.613 398.434 124.555 398.848 124.555C399.363 124.555 399.824 124.637 400.23 124.801C400.645 124.957 401 125.18 401.297 125.469C401.594 125.758 401.832 126.105 402.012 126.512C402.191 126.91 402.312 127.355 402.375 127.848H404.602C404.586 127.066 404.418 126.359 404.098 125.727C403.777 125.094 403.352 124.555 402.82 124.109C402.289 123.664 401.68 123.32 400.992 123.078C400.305 122.828 399.59 122.703 398.848 122.703C398.176 122.703 397.508 122.809 396.844 123.02C396.18 123.223 395.586 123.523 395.062 123.922C394.539 124.32 394.113 124.809 393.785 125.387C393.465 125.965 393.305 126.621 393.305 127.355C393.305 128.09 393.465 128.73 393.785 129.277C394.113 129.816 394.535 130.285 395.051 130.684C395.559 131.074 396.121 131.41 396.738 131.691C397.363 131.965 397.977 132.199 398.578 132.395C398.992 132.527 399.422 132.676 399.867 132.84C400.32 133.004 400.734 133.207 401.109 133.449C401.484 133.699 401.789 134.004 402.023 134.363C402.266 134.723 402.387 135.164 402.387 135.688Z" fill="#2D3748"/>
<path d="M312.293 208.113V206.273H305.168V200.789H313.371V198.938H303V216H313.477V214.16H305.168V208.113H312.293Z" fill="#2D3748"/>
<path d="M321.504 216H323.391L328.77 198.938H326.461L322.688 211.652L322.43 212.508L322.184 211.676L318.434 198.938H316.113L321.504 216Z" fill="#2D3748"/>
<path d="M341.121 208.113V206.273H333.996V200.789H342.199V198.938H331.828V216H342.305V214.16H333.996V208.113H341.121Z" fill="#2D3748"/>
<path d="M356.836 216V198.938H354.645L354.609 211.664L347.988 198.938H345.785V216H347.977L348.012 203.25L354.633 216H356.836Z" fill="#2D3748"/>
<path d="M372.07 200.789V198.938H359.414V200.789H364.688V216H366.797V200.789H372.07Z" fill="#2D3748"/>
<path d="M383.906 211.688C383.906 212.156 383.805 212.562 383.602 212.906C383.398 213.242 383.137 213.52 382.816 213.738C382.496 213.965 382.129 214.133 381.715 214.242C381.309 214.344 380.895 214.395 380.473 214.395C379.941 214.395 379.449 214.324 378.996 214.184C378.551 214.035 378.156 213.816 377.812 213.527C377.469 213.246 377.188 212.902 376.969 212.496C376.75 212.082 376.605 211.609 376.535 211.078H374.32C374.344 211.812 374.504 212.48 374.801 213.082C375.105 213.676 375.516 214.195 376.031 214.641C376.609 215.156 377.289 215.551 378.07 215.824C378.859 216.098 379.66 216.234 380.473 216.234C381.152 216.234 381.832 216.141 382.512 215.953C383.191 215.758 383.801 215.469 384.34 215.086C384.879 214.711 385.316 214.238 385.652 213.668C385.996 213.098 386.168 212.43 386.168 211.664C386.168 210.906 386.008 210.238 385.688 209.66C385.375 209.082 384.961 208.594 384.445 208.195C383.922 207.766 383.344 207.414 382.711 207.141C382.078 206.859 381.445 206.621 380.812 206.426C380.43 206.309 380.02 206.172 379.582 206.016C379.152 205.859 378.754 205.664 378.387 205.43C378.012 205.195 377.703 204.91 377.461 204.574C377.219 204.23 377.094 203.812 377.086 203.32C377.086 202.867 377.176 202.469 377.355 202.125C377.543 201.781 377.793 201.492 378.105 201.258C378.41 201.023 378.758 200.848 379.148 200.73C379.547 200.613 379.953 200.555 380.367 200.555C380.883 200.555 381.344 200.637 381.75 200.801C382.164 200.957 382.52 201.18 382.816 201.469C383.113 201.758 383.352 202.105 383.531 202.512C383.711 202.91 383.832 203.355 383.895 203.848H386.121C386.105 203.066 385.938 202.359 385.617 201.727C385.297 201.094 384.871 200.555 384.34 200.109C383.809 199.664 383.199 199.32 382.512 199.078C381.824 198.828 381.109 198.703 380.367 198.703C379.695 198.703 379.027 198.809 378.363 199.02C377.699 199.223 377.105 199.523 376.582 199.922C376.059 200.32 375.633 200.809 375.305 201.387C374.984 201.965 374.824 202.621 374.824 203.355C374.824 204.09 374.984 204.73 375.305 205.277C375.633 205.816 376.055 206.285 376.57 206.684C377.078 207.074 377.641 207.41 378.258 207.691C378.883 207.965 379.496 208.199 380.098 208.395C380.512 208.527 380.941 208.676 381.387 208.84C381.84 209.004 382.254 209.207 382.629 209.449C383.004 209.699 383.309 210.004 383.543 210.363C383.785 210.723 383.906 211.164 383.906 211.688Z" fill="#2D3748"/>
<defs>
<linearGradient id="paint0_linear" x1="196.575" y1="174.613" x2="239.618" y2="172.116" gradientUnits="userSpaceOnUse">
<stop stop-color="#2A3B8F"/>
<stop offset="1" stop-color="#29ABE2"/>
</linearGradient>
<linearGradient id="paint1_linear" x1="217.496" y1="183.977" x2="249.926" y2="182.096" gradientUnits="userSpaceOnUse">
<stop stop-color="#2A3B8F"/>
<stop offset="1" stop-color="#29ABE2"/>
</linearGradient>
<linearGradient id="paint2_linear" x1="242.034" y1="210.965" x2="198.775" y2="213.474" gradientUnits="userSpaceOnUse">
<stop stop-color="#B4D44E"/>
<stop offset="1" stop-color="#E7F716"/>
</linearGradient>
<linearGradient id="paint3_linear" x1="250.143" y1="185.838" x2="217.713" y2="187.719" gradientUnits="userSpaceOnUse">
<stop stop-color="#B4D44E"/>
<stop offset="1" stop-color="#E7F716"/>
</linearGradient>
<clipPath id="clip0">
<rect width="200" height="56" fill="white" transform="translate(1071 114)"/>
</clipPath>
<clipPath id="clip1">
<rect width="64" height="64" fill="white" transform="translate(916 49)"/>
</clipPath>
<clipPath id="clip2">
<rect width="96" height="78.7081" fill="white" transform="matrix(0.878817 -0.477159 0.0579125 0.998322 164 182.383)"/>
</clipPath>
</defs>
</svg>
