<svg width="1410" height="614" viewBox="0 0 1410 614" fill="none" xmlns="http://www.w3.org/2000/svg">
<rect width="1410" height="613.769" fill="white"/>
<path d="M147.867 232.494L157.904 204.703H154.055L144 232.494H147.867Z" fill="#1A202C"/>
<g clip-path="url(#clip0)">
<path d="M440.429 311.923C439.481 311.923 438.573 312.299 437.903 312.969C437.233 313.639 436.857 314.547 436.857 315.494V458.351C436.857 459.299 436.481 460.207 435.811 460.877C435.141 461.546 434.233 461.923 433.286 461.923H154.714C153.767 461.923 152.859 461.546 152.189 460.877C151.519 460.207 151.143 459.299 151.143 458.351V315.494C151.143 314.547 150.767 313.639 150.097 312.969C149.427 312.299 148.519 311.923 147.571 311.923C146.624 311.923 145.716 312.299 145.046 312.969C144.376 313.639 144 314.547 144 315.494V458.351C144 464.258 148.807 469.066 154.714 469.066H433.286C439.193 469.066 444 464.258 444 458.351V315.494C444 314.547 443.624 313.639 442.954 312.969C442.284 312.299 441.376 311.923 440.429 311.923Z" fill="black"/>
<path d="M433.286 240.494H154.714C148.807 240.494 144 245.301 144 251.208V294.066C144 295.013 144.376 295.921 145.046 296.591C145.716 297.261 146.624 297.637 147.571 297.637H440.429C441.376 297.637 442.284 297.261 442.954 296.591C443.624 295.921 444 295.013 444 294.066V251.208C444 245.301 439.193 240.494 433.286 240.494ZM436.857 290.494H151.143V251.208C151.143 250.261 151.519 249.353 152.189 248.683C152.859 248.013 153.767 247.637 154.714 247.637H433.286C434.233 247.637 435.141 248.013 435.811 248.683C436.481 249.353 436.857 250.261 436.857 251.208V290.494Z" fill="black"/>
<path d="M269 440.494C269.947 440.494 270.856 440.118 271.525 439.448C272.195 438.778 272.571 437.87 272.571 436.923V322.637C272.571 321.69 272.195 320.781 271.525 320.112C270.856 319.442 269.947 319.066 269 319.066H176.143C175.196 319.066 174.287 319.442 173.617 320.112C172.948 320.781 172.571 321.69 172.571 322.637V436.923C172.571 437.87 172.948 438.778 173.617 439.448C174.287 440.118 175.196 440.494 176.143 440.494H269ZM179.714 326.208H265.429V433.351H179.714V326.208Z" fill="black"/>
<path d="M304.714 347.637H411.857C412.804 347.637 413.713 347.261 414.383 346.591C415.052 345.921 415.429 345.013 415.429 344.066C415.429 343.118 415.052 342.21 414.383 341.54C413.713 340.87 412.804 340.494 411.857 340.494H304.714C303.767 340.494 302.859 340.87 302.189 341.54C301.519 342.21 301.143 343.118 301.143 344.066C301.143 345.013 301.519 345.921 302.189 346.591C302.859 347.261 303.767 347.637 304.714 347.637Z" fill="black"/>
<path d="M304.714 383.351H411.857C412.804 383.351 413.713 382.975 414.383 382.305C415.052 381.635 415.429 380.727 415.429 379.78C415.429 378.833 415.052 377.924 414.383 377.254C413.713 376.585 412.804 376.208 411.857 376.208H304.714C303.767 376.208 302.859 376.585 302.189 377.254C301.519 377.924 301.143 378.833 301.143 379.78C301.143 380.727 301.519 381.635 302.189 382.305C302.859 382.975 303.767 383.351 304.714 383.351Z" fill="black"/>
<path d="M304.714 419.066H411.857C412.804 419.066 413.713 418.689 414.383 418.02C415.052 417.35 415.429 416.441 415.429 415.494C415.429 414.547 415.052 413.639 414.383 412.969C413.713 412.299 412.804 411.923 411.857 411.923H304.714C303.767 411.923 302.859 412.299 302.189 412.969C301.519 413.639 301.143 414.547 301.143 415.494C301.143 416.441 301.519 417.35 302.189 418.02C302.859 418.689 303.767 419.066 304.714 419.066Z" fill="black"/>
<path d="M172.571 276.208C176.516 276.208 179.714 273.01 179.714 269.066C179.714 265.121 176.516 261.923 172.571 261.923C168.627 261.923 165.429 265.121 165.429 269.066C165.429 273.01 168.627 276.208 172.571 276.208Z" fill="black"/>
<path d="M201.143 276.208C205.088 276.208 208.286 273.01 208.286 269.066C208.286 265.121 205.088 261.923 201.143 261.923C197.198 261.923 194 265.121 194 269.066C194 273.01 197.198 276.208 201.143 276.208Z" fill="black"/>
<path d="M229.714 276.208C233.659 276.208 236.857 273.01 236.857 269.066C236.857 265.121 233.659 261.923 229.714 261.923C225.769 261.923 222.571 265.121 222.571 269.066C222.571 273.01 225.769 276.208 229.714 276.208Z" fill="black"/>
</g>
<path d="M953.536 356.304C955.488 354.352 955.488 351.186 953.536 349.233L921.716 317.413C919.763 315.461 916.597 315.461 914.645 317.413C912.692 319.366 912.692 322.532 914.645 324.484L942.929 352.769L914.645 381.053C912.692 383.006 912.692 386.171 914.645 388.124C916.597 390.077 919.763 390.077 921.716 388.124L953.536 356.304ZM456.464 349.233C454.512 351.186 454.512 354.352 456.464 356.304L488.284 388.124C490.237 390.077 493.403 390.077 495.355 388.124C497.308 386.171 497.308 383.006 495.355 381.053L467.071 352.769L495.355 324.484C497.308 322.532 497.308 319.366 495.355 317.413C493.403 315.461 490.237 315.461 488.284 317.413L456.464 349.233ZM950 347.769L460 347.769V357.769L950 357.769V347.769Z" fill="#1A202C"/>
<circle cx="705" cy="354.769" r="115" fill="#1A202C"/>
<g clip-path="url(#clip1)">
<path d="M670.518 368.1C679.305 368.1 686.429 361.105 686.429 352.475C686.429 343.846 679.305 336.851 670.517 336.851C661.731 336.851 654.607 343.846 654.607 352.476C654.607 361.105 661.731 368.1 670.518 368.1ZM632.911 399.349C641.698 399.349 648.822 392.354 648.822 383.724C648.822 375.096 641.698 368.1 632.91 368.1C624.124 368.1 617 375.095 617 383.724C617 392.353 624.123 399.349 632.911 399.349V399.349ZM776.589 399.349C785.376 399.349 792.5 392.354 792.5 383.724C792.5 375.096 785.377 368.1 776.589 368.1C767.802 368.1 760.678 375.095 760.678 383.724C760.678 392.353 767.802 399.349 776.59 399.349L776.589 399.349Z" fill="white"/>
<path d="M724.333 353.134C723.824 347.914 723.565 343.569 719.493 340.515C714.336 336.648 708.494 339.157 701.298 336.607C694.227 334.927 688.982 328.762 688.982 321.414C688.982 312.773 696.234 305.769 705.179 305.769C711.805 305.769 717.501 309.611 720.01 315.115C723.85 322.278 721.354 329.567 726.179 333.239C731.891 337.586 739.594 334.403 748.188 338.522C750.931 339.758 753.267 341.723 754.933 344.194C756.635 346.717 757.54 349.677 757.537 352.704C757.537 360.052 752.293 366.217 745.222 367.897C738.026 370.448 732.184 367.939 727.027 371.806C721.227 376.155 724.332 383.43 719.605 391.115C716.923 396.176 711.47 399.64 705.179 399.64C696.234 399.64 688.982 392.635 688.982 383.994C688.982 377.718 692.809 372.304 698.332 369.812C706.926 365.692 714.627 368.876 720.341 364.529C723.636 362.02 724.333 358.151 724.333 353.134V353.134Z" fill="#D0021B"/>
</g>
<path d="M969.867 233.197L979.904 205.406H976.055L966 233.197H969.867Z" fill="#1A202C"/>
<path d="M985.688 221.35V221.719C985.688 223.09 985.863 224.367 986.215 225.551C986.566 226.723 987.064 227.736 987.709 228.592C988.354 229.459 989.139 230.139 990.064 230.631C990.99 231.111 992.033 231.352 993.193 231.352C994.295 231.352 995.268 231.152 996.111 230.754C996.955 230.344 997.682 229.764 998.291 229.014L998.484 231H1002.3V204H998.098V213.756C997.488 213.076 996.785 212.555 995.988 212.191C995.203 211.816 994.283 211.629 993.229 211.629C992.057 211.629 991.002 211.869 990.064 212.35C989.139 212.818 988.354 213.48 987.709 214.336C987.053 215.191 986.549 216.217 986.197 217.412C985.857 218.596 985.688 219.908 985.688 221.35ZM989.889 221.719V221.35C989.889 220.494 989.971 219.691 990.135 218.941C990.299 218.18 990.557 217.512 990.908 216.938C991.26 216.363 991.711 215.912 992.262 215.584C992.824 215.256 993.498 215.092 994.283 215.092C995.221 215.092 995.994 215.303 996.604 215.725C997.225 216.135 997.723 216.691 998.098 217.395V225.568C997.723 226.283 997.225 226.852 996.604 227.273C995.982 227.684 995.197 227.889 994.248 227.889C993.475 227.889 992.812 227.73 992.262 227.414C991.711 227.086 991.26 226.641 990.908 226.078C990.557 225.516 990.299 224.859 990.135 224.109C989.971 223.359 989.889 222.562 989.889 221.719Z" fill="#1A202C"/>
<path d="M1016.75 231.352C1018.6 231.352 1020.18 230.988 1021.48 230.262C1022.79 229.535 1023.76 228.715 1024.39 227.801L1022.14 225.621C1021.56 226.371 1020.81 226.951 1019.91 227.361C1019.01 227.76 1018.04 227.959 1016.99 227.959C1016.23 227.959 1015.53 227.83 1014.88 227.572C1014.25 227.314 1013.7 226.951 1013.23 226.482C1012.76 226.037 1012.39 225.533 1012.12 224.971C1011.86 224.408 1011.66 223.711 1011.53 222.879V222.791H1024.71V220.98C1024.71 219.621 1024.53 218.367 1024.17 217.219C1023.8 216.07 1023.26 215.08 1022.55 214.248C1021.83 213.428 1020.95 212.789 1019.89 212.332C1018.84 211.863 1017.63 211.629 1016.26 211.629C1015.03 211.629 1013.87 211.863 1012.78 212.332C1011.7 212.789 1010.75 213.445 1009.93 214.301C1009.11 215.156 1008.46 216.188 1007.99 217.395C1007.53 218.602 1007.29 219.949 1007.29 221.438V222.158C1007.29 223.459 1007.51 224.672 1007.96 225.797C1008.42 226.91 1009.06 227.877 1009.89 228.697C1010.72 229.529 1011.72 230.18 1012.88 230.648C1014.05 231.117 1015.34 231.352 1016.75 231.352ZM1016.24 215.039C1016.94 215.039 1017.56 215.162 1018.08 215.408C1018.62 215.643 1019.07 215.959 1019.42 216.357C1019.78 216.768 1020.06 217.248 1020.26 217.799C1020.46 218.338 1020.56 218.883 1020.56 219.434V219.715H1011.62C1011.74 218.988 1011.94 218.338 1012.21 217.764C1012.48 217.189 1012.82 216.697 1013.21 216.287C1013.61 215.889 1014.06 215.584 1014.57 215.373C1015.08 215.15 1015.64 215.039 1016.24 215.039Z" fill="#1A202C"/>
<path d="M1037.93 207.34H1033.71V211.98H1029.11V215.127H1033.71V224.479C1033.71 225.697 1033.87 226.74 1034.19 227.607C1034.51 228.475 1034.96 229.189 1035.54 229.752C1036.11 230.303 1036.8 230.713 1037.6 230.982C1038.4 231.24 1039.29 231.369 1040.25 231.369C1040.78 231.369 1041.3 231.34 1041.83 231.281C1042.37 231.234 1042.89 231.164 1043.38 231.07C1043.87 230.977 1044.33 230.865 1044.75 230.736C1045.18 230.596 1045.55 230.432 1045.86 230.244L1045.4 227.344C1045.19 227.391 1044.93 227.449 1044.61 227.52C1044.3 227.578 1043.97 227.631 1043.61 227.678C1043.26 227.736 1042.89 227.783 1042.5 227.818C1042.11 227.854 1041.74 227.871 1041.38 227.871C1040.87 227.871 1040.41 227.812 1039.99 227.695C1039.56 227.578 1039.2 227.379 1038.9 227.098C1038.59 226.828 1038.35 226.459 1038.18 225.99C1038.01 225.51 1037.93 224.918 1037.93 224.215V215.127H1045.08V211.98H1037.93V207.34Z" fill="#1A202C"/>
<path d="M1063.26 231H1067.55V230.701C1067.31 230.209 1067.13 229.623 1067 228.943C1066.89 228.252 1066.83 227.479 1066.83 226.623V218.168C1066.83 217.09 1066.63 216.141 1066.23 215.32C1065.83 214.488 1065.28 213.803 1064.58 213.264C1063.88 212.725 1063.04 212.32 1062.06 212.051C1061.1 211.77 1060.07 211.629 1058.95 211.629C1057.71 211.629 1056.6 211.793 1055.63 212.121C1054.67 212.438 1053.86 212.871 1053.19 213.422C1052.52 213.961 1052.01 214.582 1051.66 215.285C1051.31 215.988 1051.12 216.721 1051.11 217.482H1055.33C1055.33 217.119 1055.4 216.779 1055.53 216.463C1055.67 216.135 1055.88 215.859 1056.16 215.637C1056.44 215.391 1056.79 215.197 1057.21 215.057C1057.65 214.916 1058.15 214.846 1058.72 214.846C1059.36 214.846 1059.91 214.928 1060.39 215.092C1060.89 215.244 1061.3 215.467 1061.64 215.76C1061.96 216.053 1062.2 216.398 1062.36 216.797C1062.54 217.195 1062.63 217.641 1062.63 218.133V219.416H1059.57C1058.2 219.416 1056.97 219.545 1055.88 219.803C1054.8 220.061 1053.89 220.436 1053.15 220.928C1052.36 221.455 1051.75 222.123 1051.32 222.932C1050.91 223.729 1050.71 224.648 1050.71 225.691C1050.71 226.5 1050.87 227.256 1051.18 227.959C1051.51 228.65 1051.96 229.242 1052.54 229.734C1053.12 230.238 1053.82 230.637 1054.63 230.93C1055.45 231.211 1056.35 231.352 1057.34 231.352C1057.95 231.352 1058.51 231.293 1059.04 231.176C1059.57 231.059 1060.06 230.895 1060.52 230.684C1060.97 230.484 1061.38 230.25 1061.75 229.98C1062.12 229.699 1062.46 229.406 1062.75 229.102C1062.81 229.465 1062.87 229.816 1062.94 230.156C1063.03 230.484 1063.13 230.766 1063.26 231ZM1058.14 227.977C1057.61 227.977 1057.14 227.912 1056.74 227.783C1056.34 227.643 1056.01 227.455 1055.74 227.221C1055.47 226.986 1055.26 226.705 1055.12 226.377C1054.98 226.037 1054.91 225.674 1054.91 225.287C1054.91 224.818 1054.99 224.396 1055.16 224.021C1055.33 223.646 1055.6 223.324 1055.95 223.055C1056.35 222.738 1056.88 222.498 1057.55 222.334C1058.21 222.158 1059.01 222.07 1059.92 222.07H1062.63V225.586C1062.47 225.891 1062.26 226.184 1061.98 226.465C1061.7 226.746 1061.36 226.998 1060.97 227.221C1060.59 227.443 1060.15 227.625 1059.67 227.766C1059.21 227.906 1058.7 227.977 1058.14 227.977Z" fill="#1A202C"/>
<path d="M1073.7 211.98V215.479H1079.55V227.52H1073.7V231H1089.38V227.52H1083.79V211.98H1073.7ZM1079.17 207.059C1079.17 207.504 1079.27 207.896 1079.48 208.236C1079.71 208.564 1080.03 208.793 1080.45 208.922C1080.86 209.051 1081.24 209.08 1081.58 209.01C1081.92 208.939 1082.21 208.793 1082.46 208.57C1082.95 208.441 1083.32 208.189 1083.58 207.814C1083.84 207.428 1083.93 206.977 1083.84 206.461C1083.79 205.957 1083.56 205.547 1083.16 205.23C1082.77 204.902 1082.26 204.738 1081.63 204.738C1081.25 204.738 1080.91 204.797 1080.61 204.914C1080.32 205.02 1080.06 205.172 1079.85 205.371C1079.63 205.582 1079.46 205.834 1079.34 206.127C1079.23 206.408 1079.17 206.719 1079.17 207.059Z" fill="#1A202C"/>
<path d="M1095.16 204V207.498H1101.18V227.52H1095.16V231H1111.18V227.52H1105.41V204H1095.16Z" fill="#1A202C"/>
<path d="M1128.4 225.85C1128.4 226.154 1128.33 226.436 1128.19 226.693C1128.06 226.939 1127.87 227.168 1127.6 227.379C1127.27 227.637 1126.83 227.842 1126.28 227.994C1125.74 228.146 1125.11 228.223 1124.38 228.223C1123.84 228.223 1123.31 228.17 1122.78 228.064C1122.25 227.947 1121.78 227.76 1121.37 227.502C1120.95 227.256 1120.6 226.934 1120.32 226.535C1120.05 226.125 1119.9 225.627 1119.86 225.041H1115.78C1115.78 225.826 1115.97 226.6 1116.35 227.361C1116.72 228.123 1117.27 228.797 1118 229.383C1118.71 229.98 1119.6 230.461 1120.65 230.824C1121.72 231.188 1122.94 231.369 1124.31 231.369C1125.54 231.369 1126.66 231.229 1127.67 230.947C1128.67 230.666 1129.54 230.273 1130.27 229.77C1130.98 229.266 1131.53 228.662 1131.92 227.959C1132.32 227.256 1132.52 226.482 1132.52 225.639C1132.52 224.771 1132.33 224.021 1131.96 223.389C1131.58 222.756 1131.05 222.205 1130.37 221.736C1129.69 221.291 1128.87 220.916 1127.91 220.611C1126.95 220.307 1125.89 220.049 1124.73 219.838C1123.9 219.697 1123.21 219.539 1122.66 219.363C1122.12 219.188 1121.7 218.994 1121.39 218.783C1121.06 218.584 1120.83 218.355 1120.71 218.098C1120.58 217.828 1120.51 217.529 1120.51 217.201C1120.51 216.885 1120.59 216.586 1120.74 216.305C1120.89 216.012 1121.12 215.76 1121.43 215.549C1121.73 215.314 1122.12 215.133 1122.59 215.004C1123.07 214.863 1123.62 214.793 1124.26 214.793C1124.95 214.793 1125.55 214.887 1126.07 215.074C1126.58 215.25 1127 215.49 1127.33 215.795C1127.61 216.053 1127.82 216.346 1127.96 216.674C1128.12 216.99 1128.19 217.324 1128.19 217.676H1132.39C1132.39 216.82 1132.21 216.023 1131.83 215.285C1131.46 214.547 1130.92 213.908 1130.23 213.369C1129.53 212.83 1128.67 212.408 1127.67 212.104C1126.66 211.787 1125.52 211.629 1124.26 211.629C1123.07 211.629 1121.99 211.781 1121.02 212.086C1120.06 212.391 1119.24 212.807 1118.56 213.334C1117.87 213.861 1117.34 214.477 1116.96 215.18C1116.6 215.871 1116.42 216.604 1116.42 217.377C1116.42 218.186 1116.6 218.895 1116.96 219.504C1117.32 220.102 1117.83 220.629 1118.47 221.086C1119.13 221.555 1119.91 221.953 1120.81 222.281C1121.72 222.609 1122.73 222.885 1123.83 223.107C1124.71 223.271 1125.45 223.447 1126.03 223.635C1126.62 223.822 1127.09 224.021 1127.46 224.232C1127.79 224.467 1128.04 224.713 1128.18 224.971C1128.33 225.229 1128.4 225.521 1128.4 225.85Z" fill="#1A202C"/>
<path d="M1142.84 233.197L1152.87 205.406H1149.02L1138.97 233.197H1142.84Z" fill="#1A202C"/>
<path d="M1164.97 228.469C1164.97 229.277 1165.23 229.963 1165.76 230.525C1166.3 231.076 1167.05 231.352 1168.01 231.352C1168.96 231.352 1169.7 231.076 1170.24 230.525C1170.79 229.975 1171.07 229.289 1171.07 228.469C1171.07 227.648 1170.8 226.957 1170.26 226.395C1169.72 225.82 1168.97 225.533 1168.01 225.533C1167.04 225.533 1166.29 225.82 1165.76 226.395C1165.23 226.969 1164.97 227.66 1164.97 228.469ZM1164.97 213.58C1164.97 214.389 1165.23 215.074 1165.76 215.637C1166.3 216.188 1167.05 216.463 1168.01 216.463C1168.96 216.463 1169.7 216.188 1170.24 215.637C1170.79 215.086 1171.07 214.4 1171.07 213.58C1171.07 212.76 1170.8 212.068 1170.26 211.506C1169.72 210.932 1168.97 210.645 1168.01 210.645C1167.04 210.645 1166.29 210.932 1165.76 211.506C1165.23 212.08 1164.97 212.771 1164.97 213.58Z" fill="#1A202C"/>
<path d="M1181.81 211.98V215.479H1187.66V227.52H1181.81V231H1197.49V227.52H1191.9V211.98H1181.81ZM1187.27 207.059C1187.27 207.504 1187.38 207.896 1187.59 208.236C1187.81 208.564 1188.13 208.793 1188.56 208.922C1188.97 209.051 1189.34 209.08 1189.68 209.01C1190.02 208.939 1190.31 208.793 1190.56 208.57C1191.05 208.441 1191.43 208.189 1191.69 207.814C1191.94 207.428 1192.03 206.977 1191.95 206.461C1191.89 205.957 1191.66 205.547 1191.26 205.23C1190.88 204.902 1190.37 204.738 1189.73 204.738C1189.36 204.738 1189.02 204.797 1188.71 204.914C1188.42 205.02 1188.17 205.172 1187.96 205.371C1187.74 205.582 1187.57 205.834 1187.45 206.127C1187.33 206.408 1187.27 206.719 1187.27 207.059Z" fill="#1A202C"/>
<path d="M1201.9 221.35V221.719C1201.9 223.09 1202.07 224.367 1202.43 225.551C1202.78 226.723 1203.28 227.736 1203.92 228.592C1204.56 229.459 1205.35 230.139 1206.28 230.631C1207.2 231.111 1208.24 231.352 1209.4 231.352C1210.51 231.352 1211.48 231.152 1212.32 230.754C1213.17 230.344 1213.89 229.764 1214.5 229.014L1214.7 231H1218.51V204H1214.31V213.756C1213.7 213.076 1213 212.555 1212.2 212.191C1211.41 211.816 1210.49 211.629 1209.44 211.629C1208.27 211.629 1207.21 211.869 1206.28 212.35C1205.35 212.818 1204.56 213.48 1203.92 214.336C1203.26 215.191 1202.76 216.217 1202.41 217.412C1202.07 218.596 1201.9 219.908 1201.9 221.35ZM1206.1 221.719V221.35C1206.1 220.494 1206.18 219.691 1206.35 218.941C1206.51 218.18 1206.77 217.512 1207.12 216.938C1207.47 216.363 1207.92 215.912 1208.47 215.584C1209.04 215.256 1209.71 215.092 1210.49 215.092C1211.43 215.092 1212.21 215.303 1212.81 215.725C1213.44 216.135 1213.93 216.691 1214.31 217.395V225.568C1213.93 226.283 1213.44 226.852 1212.81 227.273C1212.19 227.684 1211.41 227.889 1210.46 227.889C1209.69 227.889 1209.02 227.73 1208.47 227.414C1207.92 227.086 1207.47 226.641 1207.12 226.078C1206.77 225.516 1206.51 224.859 1206.35 224.109C1206.18 223.359 1206.1 222.562 1206.1 221.719Z" fill="#1A202C"/>
<g clip-path="url(#clip2)">
<path d="M1262.43 312.626C1261.48 312.626 1260.57 313.002 1259.9 313.672C1259.23 314.342 1258.86 315.25 1258.86 316.197V459.054C1258.86 460.002 1258.48 460.91 1257.81 461.58C1257.14 462.25 1256.23 462.626 1255.29 462.626H976.714C975.767 462.626 974.859 462.25 974.189 461.58C973.519 460.91 973.143 460.002 973.143 459.054V316.197C973.143 315.25 972.767 314.342 972.097 313.672C971.427 313.002 970.519 312.626 969.571 312.626C968.624 312.626 967.716 313.002 967.046 313.672C966.376 314.342 966 315.25 966 316.197V459.054C966 464.962 970.807 469.769 976.714 469.769H1255.29C1261.19 469.769 1266 464.962 1266 459.054V316.197C1266 315.25 1265.62 314.342 1264.95 313.672C1264.28 313.002 1263.38 312.626 1262.43 312.626Z" fill="black"/>
<path d="M1255.29 241.197H976.714C970.807 241.197 966 246.004 966 251.912V294.769C966 295.716 966.376 296.624 967.046 297.294C967.716 297.964 968.624 298.34 969.571 298.34H1262.43C1263.38 298.34 1264.28 297.964 1264.95 297.294C1265.62 296.624 1266 295.716 1266 294.769V251.912C1266 246.004 1261.19 241.197 1255.29 241.197ZM1258.86 291.197H973.143V251.912C973.143 250.964 973.519 250.056 974.189 249.386C974.859 248.716 975.767 248.34 976.714 248.34H1255.29C1256.23 248.34 1257.14 248.716 1257.81 249.386C1258.48 250.056 1258.86 250.964 1258.86 251.912V291.197Z" fill="black"/>
<path d="M1091 441.197C1091.95 441.197 1092.86 440.821 1093.53 440.151C1094.2 439.481 1094.57 438.573 1094.57 437.626V323.34C1094.57 322.393 1094.2 321.484 1093.53 320.815C1092.86 320.145 1091.95 319.769 1091 319.769H998.143C997.196 319.769 996.287 320.145 995.617 320.815C994.948 321.484 994.571 322.393 994.571 323.34V437.626C994.571 438.573 994.948 439.481 995.617 440.151C996.287 440.821 997.196 441.197 998.143 441.197H1091ZM1001.71 326.912H1087.43V434.054H1001.71V326.912Z" fill="black"/>
<path d="M1126.71 348.34H1233.86C1234.8 348.34 1235.71 347.964 1236.38 347.294C1237.05 346.624 1237.43 345.716 1237.43 344.769C1237.43 343.821 1237.05 342.913 1236.38 342.243C1235.71 341.574 1234.8 341.197 1233.86 341.197H1126.71C1125.77 341.197 1124.86 341.574 1124.19 342.243C1123.52 342.913 1123.14 343.821 1123.14 344.769C1123.14 345.716 1123.52 346.624 1124.19 347.294C1124.86 347.964 1125.77 348.34 1126.71 348.34Z" fill="black"/>
<path d="M1126.71 384.054H1233.86C1234.8 384.054 1235.71 383.678 1236.38 383.008C1237.05 382.339 1237.43 381.43 1237.43 380.483C1237.43 379.536 1237.05 378.627 1236.38 377.958C1235.71 377.288 1234.8 376.912 1233.86 376.912H1126.71C1125.77 376.912 1124.86 377.288 1124.19 377.958C1123.52 378.627 1123.14 379.536 1123.14 380.483C1123.14 381.43 1123.52 382.339 1124.19 383.008C1124.86 383.678 1125.77 384.054 1126.71 384.054Z" fill="black"/>
<path d="M1126.71 419.769H1233.86C1234.8 419.769 1235.71 419.392 1236.38 418.723C1237.05 418.053 1237.43 417.144 1237.43 416.197C1237.43 415.25 1237.05 414.342 1236.38 413.672C1235.71 413.002 1234.8 412.626 1233.86 412.626H1126.71C1125.77 412.626 1124.86 413.002 1124.19 413.672C1123.52 414.342 1123.14 415.25 1123.14 416.197C1123.14 417.144 1123.52 418.053 1124.19 418.723C1124.86 419.392 1125.77 419.769 1126.71 419.769Z" fill="black"/>
<path d="M994.571 276.912C998.516 276.912 1001.71 273.714 1001.71 269.769C1001.71 265.824 998.516 262.626 994.571 262.626C990.627 262.626 987.429 265.824 987.429 269.769C987.429 273.714 990.627 276.912 994.571 276.912Z" fill="black"/>
<path d="M1023.14 276.912C1027.09 276.912 1030.29 273.714 1030.29 269.769C1030.29 265.824 1027.09 262.626 1023.14 262.626C1019.2 262.626 1016 265.824 1016 269.769C1016 273.714 1019.2 276.912 1023.14 276.912Z" fill="black"/>
<path d="M1051.71 276.912C1055.66 276.912 1058.86 273.714 1058.86 269.769C1058.86 265.824 1055.66 262.626 1051.71 262.626C1047.77 262.626 1044.57 265.824 1044.57 269.769C1044.57 273.714 1047.77 276.912 1051.71 276.912Z" fill="black"/>
</g>
<rect x="18" y="78" width="1374" height="517.769" rx="10" stroke="#3182CE" stroke-width="4"/>
<g clip-path="url(#clip3)">
<rect width="140" height="124.688" transform="translate(53 16)" fill="white"/>
<path d="M168.108 56.3726C166.618 55.8614 165.115 55.3878 163.602 54.9523C163.856 53.9133 164.09 52.8868 164.298 51.8784C167.709 35.3184 165.479 21.9774 157.862 17.5849C150.558 13.374 138.614 17.7648 126.551 28.2632C125.362 29.2997 124.2 30.3661 123.065 31.4613C122.305 30.733 121.531 30.0189 120.745 29.3192C108.103 18.0941 95.4304 13.363 87.8212 17.7681C80.5242 21.9922 78.3635 34.5337 81.4348 50.2279C81.7403 51.7822 82.0853 53.3286 82.4695 54.8654C80.6757 55.3751 78.9448 55.9176 77.2884 56.4951C62.4659 61.663 53 69.7617 53 78.1623C53 86.8384 63.162 95.5409 78.6003 100.818C79.8519 101.244 81.114 101.638 82.3852 102.002C81.9724 103.657 81.6058 105.323 81.286 106.999C78.358 122.421 80.6445 134.666 87.9218 138.863C95.438 143.198 108.053 138.743 120.337 128.005C121.333 127.132 122.307 126.234 123.258 125.313C124.487 126.499 125.749 127.65 127.042 128.766C138.941 139.004 150.693 143.139 157.963 138.93C165.472 134.583 167.913 121.428 164.744 105.424C164.494 104.17 164.215 102.923 163.905 101.682C164.791 101.42 165.66 101.15 166.508 100.869C182.557 95.5513 193 86.9544 193 78.1623C193 69.7311 183.228 61.5777 168.108 56.3726V56.3726ZM164.627 95.192C163.861 95.4452 163.076 95.6896 162.275 95.9275C160.504 90.3182 158.113 84.354 155.186 78.1912C157.979 72.1756 160.278 66.2874 162 60.7148C163.432 61.1293 164.822 61.5662 166.162 62.0273C179.117 66.4876 187.019 73.0812 187.019 78.1623C187.019 83.5741 178.485 90.5998 164.627 95.192V95.192ZM158.877 106.586C160.278 113.662 160.478 120.061 159.55 125.063C158.716 129.558 157.04 132.554 154.966 133.754C150.554 136.308 141.119 132.989 130.943 124.232C129.74 123.195 128.567 122.124 127.423 121.022C131.368 116.708 135.311 111.692 139.159 106.122C145.927 105.521 152.321 104.539 158.119 103.199C158.405 104.351 158.658 105.481 158.877 106.586V106.586ZM100.729 133.313C96.4186 134.835 92.9853 134.879 90.9099 133.682C86.4939 131.135 84.658 121.303 87.1622 108.115C87.4599 106.556 87.8007 105.006 88.1843 103.467C93.9188 104.735 100.266 105.648 107.05 106.198C110.924 111.649 114.981 116.658 119.069 121.045C118.2 121.886 117.31 122.705 116.401 123.502C110.969 128.25 105.526 131.619 100.729 133.313V133.313ZM80.5352 95.1586C73.7085 92.8251 68.0708 89.7927 64.2066 86.4835C60.7339 83.5102 58.9812 80.5576 58.9812 78.1623C58.9812 73.0643 66.5811 66.5619 79.2571 62.1427C80.7955 61.6067 82.4055 61.1009 84.0762 60.6262C85.8284 66.3246 88.1263 72.2828 90.8995 78.3077C88.0902 84.4218 85.7595 90.4752 83.9903 96.2409C82.8299 95.9085 81.6778 95.5476 80.5352 95.1586V95.1586ZM87.3044 49.0789C84.6734 35.6329 86.4206 25.49 90.818 22.9443C95.5015 20.2329 105.858 24.0987 116.774 33.7916C117.486 34.425 118.187 35.0714 118.875 35.7302C114.807 40.0981 110.788 45.0709 106.949 50.4893C100.364 51.0996 94.0616 52.0796 88.2669 53.3927C87.9099 51.9632 87.5889 50.525 87.3044 49.0794V49.0789ZM147.694 63.9911C146.325 61.6269 144.906 59.2925 143.437 56.9894C147.904 57.5544 152.183 58.3041 156.202 59.2207C154.996 63.0882 153.492 67.1312 151.722 71.2766C150.428 68.8215 149.085 66.3925 147.694 63.9911V63.9911ZM123.067 40.0046C125.826 42.9933 128.589 46.3298 131.306 49.9501C125.793 49.6897 120.272 49.6886 114.759 49.9468C117.479 46.3598 120.266 43.0277 123.067 40.0046ZM98.2823 64.0321C96.9088 66.4142 95.591 68.828 94.3301 71.2716C92.5888 67.1411 91.0986 63.0794 89.8818 59.1573C93.8762 58.2637 98.1358 57.533 102.574 56.9785C101.089 59.2956 99.6576 61.6473 98.2823 64.0316V64.0321ZM102.702 99.7715C98.1161 99.2596 93.7925 98.5667 89.7992 97.6972C91.0352 93.705 92.5582 89.5569 94.3372 85.3378C95.6031 87.7832 96.9264 90.1985 98.3059 92.5817C99.7245 95.0317 101.193 97.4314 102.702 99.7715ZM123.232 116.741C120.397 113.683 117.57 110.299 114.809 106.66C117.49 106.765 120.222 106.819 123 106.819C125.854 106.819 128.674 106.755 131.451 106.631C128.725 110.336 125.972 113.724 123.232 116.741ZM151.778 85.1223C153.65 89.388 155.227 93.5141 156.479 97.438C152.42 98.3644 148.038 99.1103 143.42 99.6643C144.899 97.3185 146.332 94.9435 147.718 92.5407C149.126 90.0984 150.48 87.6249 151.778 85.1223V85.1223ZM142.537 89.5526C140.416 93.2365 138.177 96.8505 135.821 100.389C131.554 100.691 127.278 100.841 123 100.839C118.643 100.839 114.405 100.703 110.325 100.439C107.907 96.9085 105.625 93.2881 103.481 89.5854H103.482C101.349 85.9022 99.3562 82.1394 97.5085 78.305C99.3515 74.4697 101.338 70.7051 103.464 67.0191L103.463 67.0197C105.589 63.3328 107.853 59.7279 110.252 56.2129C114.415 55.8979 118.685 55.7338 122.999 55.7338H123C127.335 55.7338 131.609 55.8995 135.772 56.2167C138.146 59.7265 140.396 63.3189 142.517 66.9874C144.65 70.6653 146.663 74.4115 148.553 78.2202C146.683 82.0679 144.676 85.8477 142.537 89.5526V89.5526ZM154.875 22.766C159.562 25.4698 161.386 36.3728 158.44 50.6709C158.252 51.583 158.041 52.5122 157.811 53.4544C152.002 52.1135 145.695 51.1166 139.092 50.4969C135.245 45.0189 131.259 40.0385 127.257 35.7269C128.306 34.7161 129.38 33.7314 130.477 32.7738C140.813 23.7794 150.473 20.228 154.875 22.766V22.766ZM123 65.6607C129.904 65.6607 135.502 71.258 135.502 78.1623C135.502 85.0666 129.904 90.6638 123 90.6638C116.096 90.6638 110.498 85.0666 110.498 78.1623C110.498 71.258 116.096 65.6607 123 65.6607V65.6607Z" fill="#00D8FF"/>
</g>
<defs>
<clipPath id="clip0">
<rect width="300" height="228.571" fill="white" transform="translate(144 240.494)"/>
</clipPath>
<clipPath id="clip1">
<rect width="175.5" height="94.25" fill="white" transform="translate(617 305.769)"/>
</clipPath>
<clipPath id="clip2">
<rect width="300" height="228.571" fill="white" transform="translate(966 241.197)"/>
</clipPath>
<clipPath id="clip3">
<rect width="140" height="124.688" fill="white" transform="translate(53 16)"/>
</clipPath>
</defs>
</svg>
